<svg width="118" height="40" viewBox="0 0 118 40" fill="none" xmlns="http://www.w3.org/2000/svg">
    <path d="M18 37C27.3888 37 35 29.3888 35 20C35 10.6112 27.3888 3 18 3C8.61116 3 1 10.6112 1 20C1 29.3888 8.61116 37 18 37Z" fill="url(#paint0_linear_55_755)"/>
    <path fill-rule="evenodd" clip-rule="evenodd" d="M21.6459 12.7799C24.003 13.6447 25.7008 14.9259 25.3115 17.3846C25.017 19.1743 24.0791 20.0491 22.8117 20.3578C24.4983 21.3018 25.31 22.7347 24.4417 25.2482C23.3617 28.4005 20.9445 28.6864 17.7427 28.0758L16.9185 31.4027L15.0582 30.9416L15.8824 27.6147C15.68 27.5608 15.4667 27.5112 15.2479 27.4602C14.9555 27.3922 14.6534 27.3218 14.3544 27.236L13.5302 30.563L11.6733 30.1029L12.4975 26.7758L8.79846 25.7684L9.71788 23.4159C9.71788 23.4159 11.1141 23.7999 11.0924 23.7758C11.6103 23.9018 11.8635 23.54 11.9672 23.2867L13.2872 17.9532L14.2478 14.1623C14.2893 13.7526 14.161 13.2165 13.4044 13.0126C13.4559 12.9824 12.0423 12.675 12.0423 12.675L12.5931 10.4456L16.4055 11.3904L17.2129 8.13159L19.1335 8.60759L18.3262 11.8664C18.6996 11.9476 19.0645 12.042 19.4333 12.1374L19.4335 12.1375C19.5545 12.1688 19.676 12.2002 19.7984 12.2313L20.6057 8.97245L22.4745 9.43558L21.6459 12.7799ZM16.5495 18.02C16.5785 18.0287 16.6096 18.0381 16.6427 18.048C17.7595 18.3836 21.0711 19.3788 21.6289 17.163C22.1483 15.0567 19.2793 14.4134 17.9463 14.1144C17.7888 14.0791 17.6528 14.0486 17.5463 14.0211L16.5495 18.02ZM15.0799 24.5899C15.0212 24.5724 14.9671 24.5564 14.918 24.542L15.9149 20.5431C16.0327 20.5737 16.1816 20.6087 16.3539 20.6492C17.9254 21.0184 21.4353 21.8432 20.8898 23.9613C20.3603 26.1606 16.4558 24.9993 15.0799 24.5899Z" fill="white"/>
    <path fill-rule="evenodd" clip-rule="evenodd" d="M64.8626 9H68.2787V12.4381H64.8626V9ZM64.8626 15.0167H68.2787V30.9181H64.8626V15.0167ZM60.3545 27.7918H50.6145L60.0471 10.8337V10.3098H45.5V13.7924H54.8464L45.5 30.3493V30.8731H60.3545V27.7918ZM96.7147 16.5108C97.8896 15.1208 99.6399 14.239 101.595 14.239C105.132 14.239 108 17.1263 108 20.688V30.7421H104.584V21.1168C104.584 18.9798 102.863 17.2474 100.741 17.2474C98.6183 17.2474 96.8977 18.9798 96.8977 21.1168V30.7421H93.4815V14.6688H95.6166L96.7147 16.5108ZM89.3212 22.6195C89.3212 27.2479 85.5932 30.9999 80.9944 30.9999C76.3957 30.9999 72.6677 27.2479 72.6677 22.6195C72.6677 17.9911 76.3957 14.239 80.9944 14.239C85.5932 14.239 89.3212 17.9911 89.3212 22.6195ZM85.9051 22.6195C85.9051 25.5864 83.7065 27.9916 80.9944 27.9916C78.2824 27.9916 76.0838 25.5864 76.0838 22.6195C76.0838 19.6526 78.2824 17.2474 80.9944 17.2474C83.7065 17.2474 85.9051 19.6526 85.9051 22.6195Z" fill="#111214"/>
    <defs>
        <linearGradient id="paint0_linear_55_755" x1="18" y1="3" x2="18" y2="37" gradientUnits="userSpaceOnUse">
            <stop stop-color="#FFB60A"/>
            <stop offset="1" stop-color="#F58300"/>
        </linearGradient>
    </defs>
</svg>
