<svg width="178" height="40" viewBox="0 0 178 40" fill="none" xmlns="http://www.w3.org/2000/svg">
<path d="M18 37C27.3888 37 35 29.3888 35 20C35 10.6112 27.3888 3 18 3C8.61116 3 1 10.6112 1 20C1 29.3888 8.61116 37 18 37Z" fill="url(#paint0_linear_804_3517)"/>
<path fill-rule="evenodd" clip-rule="evenodd" d="M21.6463 12.7801C24.0034 13.6449 25.7011 14.9262 25.3119 17.3848C25.0174 19.1746 24.0795 20.0493 22.8121 20.358C24.4986 21.302 25.3104 22.735 24.442 25.2484C23.3621 28.4007 20.9448 28.6867 17.7431 28.076L16.9189 31.4029L15.0585 30.9419L15.8828 27.615C15.6804 27.5611 15.467 27.5114 15.2482 27.4604C14.9559 27.3924 14.6538 27.3221 14.3548 27.2362L13.5305 30.5633L11.6736 30.1031L12.4979 26.776L8.79883 25.7686L9.71825 23.4161C9.71825 23.4161 11.1144 23.8002 11.0928 23.776C11.6106 23.902 11.8638 23.5402 11.9676 23.2869L13.2876 17.9534L14.2482 14.1626C14.2897 13.7528 14.1614 13.2168 13.4047 13.0128C13.4562 12.9826 12.0426 12.6753 12.0426 12.6753L12.5935 10.4459L16.4059 11.3907L17.2133 8.13184L19.1339 8.60784L18.3265 11.8667C18.7 11.9479 19.0649 12.0423 19.4337 12.1377L19.4339 12.1377C19.5549 12.169 19.6764 12.2004 19.7988 12.2316L20.6061 8.97269L22.4749 9.43582L21.6463 12.7801ZM16.5499 18.0203C16.5789 18.0289 16.61 18.0383 16.643 18.0482C17.7599 18.3839 21.0715 19.3791 21.6293 17.1632C22.1487 15.057 19.2797 14.4136 17.9466 14.1147C17.7892 14.0794 17.6532 14.0489 17.5467 14.0213L16.5499 18.0203ZM15.0802 24.5902C15.0215 24.5727 14.9674 24.5567 14.9184 24.5422L15.9152 20.5433C16.033 20.5739 16.182 20.6089 16.3543 20.6494C17.9257 21.0186 21.4357 21.8435 20.8901 23.9615C20.3607 26.1608 16.4562 24.9995 15.0802 24.5902Z" fill="white"/>
<path d="M64.7409 11.5H62.1149V14.125H64.7409V11.5Z" fill="#111214"/>
<path d="M64.7409 16.0938H62.1149V28.2344H64.7409V16.0938Z" fill="#111214"/>
<path fill-rule="evenodd" clip-rule="evenodd" d="M48 12.4844H54.5668C57.0132 12.4844 58.9965 14.4676 58.9965 16.9141C58.9965 18.1245 58.511 19.2215 57.7241 20.0211C58.7984 20.8619 59.4889 22.1706 59.4889 23.6406C59.4889 26.1777 57.4322 28.2344 54.8951 28.2344H48V12.4844ZM50.626 19.0469H54.2376C55.4156 19.0469 56.3705 18.092 56.3705 16.9141C56.3705 15.7361 55.4156 14.7812 54.2376 14.7812H50.626V19.0469ZM50.626 21.3438V25.7734H54.648C55.8712 25.7734 56.8628 24.7818 56.8628 23.5586C56.8628 22.3354 55.8712 21.3438 54.648 21.3438H50.626Z" fill="#111214"/>
<path d="M106.757 11.5H109.383V14.125H106.757V11.5Z" fill="#111214"/>
<path d="M106.757 16.0938H109.383V28.2344H106.757V16.0938Z" fill="#111214"/>
<path d="M70.9777 13.4688L67.0387 17.7344V18.3906H69.0082V21.9344C69.0082 24.1396 69.0082 25.2422 69.4375 26.0845C69.8152 26.8254 70.4178 27.4277 71.1589 27.8052C72.0016 28.2344 73.0389 28.2344 75.245 28.2344V25.9375H73.603C72.5157 25.9375 71.6343 25.0561 71.6343 23.9688V18.3906H75.245V16.0938H71.6343L71.6342 13.4688H70.9777Z" fill="#111214"/>
<path d="M86.8372 20.3667L88.9987 19.2723C87.9423 17.1916 85.7813 15.7656 83.2872 15.7656C79.7521 15.7656 76.8863 18.6303 76.8863 22.1641C76.8863 25.6978 79.7521 28.5625 83.2872 28.5625C85.7813 28.5625 87.9423 27.1366 88.9987 25.0558L86.8372 23.9614C86.2107 25.3258 84.8932 26.2656 83.3693 26.2656C81.2391 26.2656 79.5123 24.4293 79.5123 22.1641C79.5123 19.8988 81.2391 18.0625 83.3693 18.0625C84.8932 18.0625 86.2107 19.0024 86.8372 20.3667Z" fill="#111214"/>
<path fill-rule="evenodd" clip-rule="evenodd" d="M97.7304 28.5625C101.266 28.5625 104.131 25.6978 104.131 22.1641C104.131 18.6303 101.266 15.7656 97.7304 15.7656C94.1952 15.7656 91.3294 18.6303 91.3294 22.1641C91.3294 25.6978 94.1952 28.5625 97.7304 28.5625ZM97.7304 26.2656C99.8152 26.2656 101.505 24.4293 101.505 22.1641C101.505 19.8988 99.8152 18.0625 97.7304 18.0625C95.6456 18.0625 93.9555 19.8988 93.9555 22.1641C93.9555 24.4293 95.6456 26.2656 97.7304 26.2656Z" fill="#111214"/>
<path d="M119.231 15.7656C117.728 15.7656 116.383 16.4388 115.48 17.5001L114.635 16.0938H112.994V28.2344H115.62V21.0168C115.62 19.3852 116.943 18.0625 118.574 18.0625C120.206 18.0625 121.529 19.3852 121.529 21.0168V28.2344H124.155V20.6894C124.155 17.9701 121.95 15.7656 119.231 15.7656Z" fill="#111214"/>
<path d="M126.945 26.2542L128.089 24.7802C129.615 26.1442 131.235 26.8262 132.951 26.8262C134.051 26.8262 134.917 26.5768 135.547 26.0782C136.178 25.5648 136.493 24.9048 136.493 24.0982C136.493 23.3648 136.207 22.7342 135.635 22.2062C135.063 21.6928 134.029 21.2382 132.533 20.8422C130.847 20.4022 129.6 19.8522 128.793 19.1922C127.987 18.5322 127.576 17.5935 127.561 16.3762C127.561 15.2468 128.053 14.2788 129.035 13.4722C129.989 12.6802 131.199 12.2842 132.665 12.2842C134.836 12.2842 136.589 12.8562 137.923 14.0002L136.889 15.4522C136.317 14.9535 135.657 14.5868 134.909 14.3522C134.147 14.1028 133.413 13.9782 132.709 13.9782C131.756 13.9782 130.971 14.2055 130.355 14.6602C129.725 15.1148 129.409 15.6868 129.409 16.3762C129.409 17.0802 129.732 17.6448 130.377 18.0702C130.993 18.5102 132.042 18.9355 133.523 19.3462C135.225 19.8155 136.449 20.4315 137.197 21.1942C137.945 21.9275 138.319 22.8735 138.319 24.0322C138.319 25.2935 137.85 26.3568 136.911 27.2222C135.987 28.0875 134.675 28.5348 132.973 28.5642C130.597 28.5642 128.588 27.7942 126.945 26.2542Z" fill="black"/>
<path d="M146.669 16.4642C147.887 16.4642 148.847 16.8162 149.551 17.5202C150.255 18.2095 150.607 19.2215 150.607 20.5562V28.3002H148.913V20.8862C148.899 19.9328 148.613 19.2508 148.055 18.8402C147.542 18.4442 146.911 18.2462 146.163 18.2462C145.445 18.2755 144.748 18.4515 144.073 18.7742C143.457 19.0675 142.922 19.4342 142.467 19.8742V28.3002H140.751V16.7282H142.225L142.401 18.2902C142.871 17.8355 143.487 17.4248 144.249 17.0582C144.997 16.6622 145.804 16.4642 146.669 16.4642Z" fill="black"/>
<path d="M157.979 16.4642C159.387 16.4642 160.494 16.8602 161.301 17.6522C162.108 18.4442 162.511 19.5955 162.511 21.1062V28.3002H161.103L160.861 27.0242C160.45 27.5228 159.959 27.9042 159.387 28.1682C158.815 28.4322 158.155 28.5642 157.407 28.5642C156.116 28.5642 155.082 28.2122 154.305 27.5082C153.528 26.8042 153.139 25.8875 153.139 24.7582C153.139 23.7022 153.608 22.8295 154.547 22.1402C155.471 21.4508 156.674 21.1062 158.155 21.1062C159.182 21.1208 160.062 21.2822 160.795 21.5902C160.795 21.3995 160.795 21.1942 160.795 20.9742C160.795 20.0942 160.56 19.4048 160.091 18.9062C159.592 18.4075 158.896 18.1582 158.001 18.1582C156.754 18.1435 155.434 18.4295 154.041 19.0162L153.557 17.4542C155.053 16.7942 156.527 16.4642 157.979 16.4642ZM157.671 27.0242C158.316 27.0095 158.91 26.8848 159.453 26.6502C159.981 26.4008 160.428 26.0488 160.795 25.5942V22.9762C160.223 22.6828 159.409 22.5288 158.353 22.5142C157.429 22.5142 156.63 22.7122 155.955 23.1082C155.28 23.5042 154.928 24.0395 154.899 24.7142C154.899 25.3742 155.141 25.9315 155.625 26.3862C156.094 26.8115 156.776 27.0242 157.671 27.0242Z" fill="black"/>
<path d="M170.937 16.4642C172.404 16.4642 173.614 17.0362 174.567 18.1802C175.506 19.3242 175.975 20.7395 175.975 22.4262C175.975 24.2008 175.462 25.6675 174.435 26.8262C173.409 27.9848 172.155 28.5642 170.673 28.5642C169.823 28.5495 169.104 28.4248 168.517 28.1902C167.945 27.9555 167.483 27.6622 167.131 27.3102V32.7002H165.415V16.7282H166.933L167.087 18.0702C167.557 17.6155 168.114 17.2342 168.759 16.9262C169.39 16.6182 170.116 16.4642 170.937 16.4642ZM170.475 26.9142C171.517 26.8995 172.404 26.4742 173.137 25.6382C173.856 24.8168 174.223 23.7388 174.237 22.4042C174.237 21.1722 173.878 20.1675 173.159 19.3902C172.441 18.6128 171.568 18.2242 170.541 18.2242C169.661 18.2535 168.913 18.4442 168.297 18.7962C167.799 19.1042 167.41 19.4415 167.131 19.8082V25.5282C167.527 25.9682 168.026 26.3128 168.627 26.5622C169.214 26.7968 169.83 26.9142 170.475 26.9142Z" fill="black"/>
<defs>
<linearGradient id="paint0_linear_804_3517" x1="18" y1="3" x2="18" y2="37" gradientUnits="userSpaceOnUse">
<stop stop-color="#B7BCC7"/>
<stop offset="1" stop-color="#9095A3"/>
</linearGradient>
</defs>
</svg>
