<svg xmlns="http://www.w3.org/2000/svg" width="137" height="64" fill="none"><path fill="#FCFCFC" d="M32.973 37.764h-9.279v9.28h9.28v-9.28Z"/><path fill="#F58B00" d="M43.421 37.764h-9.279v9.28h9.28v-9.28ZM43.421 27.325h-9.279v9.28h9.28v-9.28Z"/><path fill="#FCFCFC" d="M32.973 27.325h-9.279v9.28h9.28v-9.28ZM32.973 16.877h-9.279v9.28h9.28v-9.28ZM56.298 17.234h10.12c4.466 0 6.247 1.817 6.247 5.972v2.256c0 3.279-1.58 4.585-2.886 5.06 1.46.511 3.443 1.744 3.443 5.498v3.918c0 4.228-2.21 6.722-6.64 6.722H56.3V17.234Zm6.092 4.511v7.042h2.092c1.543 0 2.173-.795 2.173-2.567v-2.018c0-1.78-.557-2.448-2.21-2.448H62.39v-.009Zm0 11.7v8.502h2.21c1.699 0 2.293-.749 2.293-2.612v-3.242c0-1.854-.63-2.649-2.33-2.649H62.39ZM93.223 38.75c0 5.225-2.612 8.302-8.065 8.302h-.986c-5.653 0-8.11-3.123-8.11-8.301V25.106c0-5.178 2.448-8.229 8.064-8.229h.987c5.653 0 8.11 3.042 8.11 8.23V38.75Zm-6.33-13.57c0-2.092-.794-2.969-2.255-2.969-1.507 0-2.256.868-2.256 2.968v13.563c0 1.936.712 2.922 2.256 2.922 1.507 0 2.256-.986 2.256-2.922V25.178ZM96.383 17.234h10.119c4.466 0 6.247 1.817 6.247 5.972v2.256c0 3.279-1.58 4.585-2.886 5.06 1.461.511 3.443 1.744 3.443 5.498v3.918c0 4.228-2.21 6.722-6.64 6.722H96.383V17.234Zm6.082 4.511v7.042h2.092c1.543 0 2.173-.795 2.173-2.567v-2.018c0-1.78-.557-2.448-2.21-2.448h-2.055v-.009Zm0 11.7v8.502h2.21c1.699 0 2.293-.749 2.293-2.612v-3.242c0-1.854-.631-2.649-2.329-2.649h-2.174Z"/></svg>