<svg width="40" height="40" viewBox="0 0 40 40" fill="none" xmlns="http://www.w3.org/2000/svg">
<circle cx="20" cy="20.0002" r="18.8889" fill="url(#paint0_linear_69_841)"/>
<path fill-rule="evenodd" clip-rule="evenodd" d="M24.8152 12.1716C27.4342 13.1325 29.3206 14.5561 28.8882 17.2879C28.5609 19.2765 27.5188 20.2485 26.1106 20.5915C27.9845 21.6404 28.8865 23.2325 27.9216 26.0252C26.7217 29.5278 24.0359 29.8455 20.4784 29.167L19.5625 32.8636L17.4955 32.3513L18.4113 28.6548C18.1864 28.5949 17.9494 28.5397 17.7063 28.4831C17.3815 28.4075 17.0458 28.3293 16.7136 28.2339L15.7977 31.9307L13.7345 31.4193L14.6503 27.7226L10.5403 26.6032L11.5619 23.9894C11.5619 23.9894 13.1132 24.4161 13.0891 24.3893C13.6645 24.5292 13.9459 24.1273 14.0611 23.8458L15.5278 17.9197L16.5951 13.7077C16.6413 13.2524 16.4987 12.6568 15.658 12.4302C15.7152 12.3966 14.1445 12.0551 14.1445 12.0551L14.7566 9.57797L18.9926 10.6278L19.8897 7.00684L22.0237 7.53573L21.1266 11.1567C21.5415 11.2469 21.947 11.3518 22.3568 11.4578L22.357 11.4578C22.4915 11.4926 22.6265 11.5275 22.7624 11.5621L23.6595 7.94112L25.7359 8.45571L24.8152 12.1716ZM19.1525 17.994C19.1848 18.0036 19.2194 18.014 19.2561 18.025C20.497 18.398 24.1766 19.5037 24.7964 17.0417C25.3735 14.7014 22.1857 13.9866 20.7045 13.6544C20.5296 13.6152 20.3784 13.5813 20.2601 13.5507L19.1525 17.994ZM17.5196 25.2939C17.4544 25.2744 17.3943 25.2567 17.3398 25.2406L18.4474 20.7974C18.5783 20.8314 18.7438 20.8703 18.9352 20.9152C20.6813 21.3255 24.5813 22.242 23.9751 24.5954C23.3868 27.039 19.0484 25.7487 17.5196 25.2939Z" fill="white"/>
<defs>
<linearGradient id="paint0_linear_69_841" x1="20" y1="1.11133" x2="20" y2="38.8891" gradientUnits="userSpaceOnUse">
<stop stop-color="#FFB60A"/>
<stop offset="1" stop-color="#F58300"/>
</linearGradient>
</defs>
</svg>
