<svg width="96" height="96" viewBox="0 0 96 96" fill="none" xmlns="http://www.w3.org/2000/svg">
<path d="M22 20C22 18.8954 22.8954 18 24 18H72C73.1046 18 74 18.8954 74 20V64C74 65.1046 73.1046 66 72 66H24C22.8954 66 22 65.1046 22 64V20Z" fill="url(#paint0_linear_606_7149)"/>
<rect x="56" y="34" width="22" height="16" rx="1.5" fill="#33363D"/>
<rect x="68" y="40" width="4" height="4" fill="#E1E6F0"/>
<g filter="url(#filter0_d_606_7149)">
<circle cx="30" cy="56" r="14" fill="#00B87A"/>
</g>
<path d="M28.0007 59.172L37.1927 49.979L38.6077 51.393L28.0007 62L21.6367 55.636L23.0507 54.222L28.0007 59.172Z" fill="white"/>
<path fill-rule="evenodd" clip-rule="evenodd" d="M84 82.5C89.5228 82.5 94 81.3807 94 80V77.5H84H74V80C74 81.3807 78.4772 82.5 84 82.5Z" fill="url(#paint1_linear_606_7149)"/>
<ellipse cx="84" cy="77.5" rx="10" ry="2.5" fill="url(#paint2_linear_606_7149)"/>
<path fill-rule="evenodd" clip-rule="evenodd" d="M10 75C14.4183 75 18 74.1046 18 73V71H10H2V73C2 74.1046 5.58172 75 10 75Z" fill="url(#paint3_linear_606_7149)"/>
<ellipse cx="10" cy="71" rx="8" ry="2" fill="url(#paint4_linear_606_7149)"/>
<defs>
<filter id="filter0_d_606_7149" x="12" y="38" width="36" height="36" filterUnits="userSpaceOnUse" color-interpolation-filters="sRGB">
<feFlood flood-opacity="0" result="BackgroundImageFix"/>
<feColorMatrix in="SourceAlpha" type="matrix" values="0 0 0 0 0 0 0 0 0 0 0 0 0 0 0 0 0 0 127 0" result="hardAlpha"/>
<feOffset/>
<feGaussianBlur stdDeviation="2"/>
<feComposite in2="hardAlpha" operator="out"/>
<feColorMatrix type="matrix" values="0 0 0 0 0 0 0 0 0 0 0 0 0 0 0 0 0 0 0.16 0"/>
<feBlend mode="normal" in2="BackgroundImageFix" result="effect1_dropShadow_606_7149"/>
<feBlend mode="normal" in="SourceGraphic" in2="effect1_dropShadow_606_7149" result="shape"/>
</filter>
<linearGradient id="paint0_linear_606_7149" x1="74" y1="18" x2="22" y2="66" gradientUnits="userSpaceOnUse">
<stop stop-color="#FFB60A"/>
<stop offset="1" stop-color="#F58300"/>
</linearGradient>
<linearGradient id="paint1_linear_606_7149" x1="74" y1="79.5" x2="84" y2="82.5" gradientUnits="userSpaceOnUse">
<stop stop-color="#AD5507"/>
<stop offset="1" stop-color="#CC6D18"/>
</linearGradient>
<linearGradient id="paint2_linear_606_7149" x1="94" y1="75" x2="91.064" y2="85.0066" gradientUnits="userSpaceOnUse">
<stop stop-color="#FF9D0A"/>
<stop offset="1" stop-color="#F58300"/>
</linearGradient>
<linearGradient id="paint3_linear_606_7149" x1="2" y1="72.6" x2="10" y2="75" gradientUnits="userSpaceOnUse">
<stop stop-color="#AD5507"/>
<stop offset="1" stop-color="#CC6D18"/>
</linearGradient>
<linearGradient id="paint4_linear_606_7149" x1="18" y1="69" x2="15.6512" y2="77.0053" gradientUnits="userSpaceOnUse">
<stop stop-color="#FF9D0A"/>
<stop offset="1" stop-color="#F58300"/>
</linearGradient>
</defs>
</svg>
