<svg width="240" height="88" viewBox="0 0 240 88" fill="none" xmlns="http://www.w3.org/2000/svg">
<rect width="88" height="88" rx="44" fill="white" fill-opacity="0.2"/>
<circle cx="44" cy="44.0002" r="18.8889" fill="url(#paint0_linear_69_839)"/>
<path fill-rule="evenodd" clip-rule="evenodd" d="M48.8152 36.1716C51.4342 37.1325 53.3206 38.5561 52.8882 41.2879C52.5609 43.2765 51.5188 44.2485 50.1106 44.5915C51.9845 45.6404 52.8865 47.2325 51.9216 50.0252C50.7217 53.5278 48.0359 53.8455 44.4784 53.167L43.5625 56.8636L41.4955 56.3513L42.4113 52.6548C42.1864 52.5949 41.9494 52.5397 41.7063 52.4831C41.3815 52.4075 41.0458 52.3293 40.7136 52.2339L39.7977 55.9307L37.7345 55.4193L38.6503 51.7226L34.5403 50.6032L35.5619 47.9894C35.5619 47.9894 37.1132 48.4161 37.0891 48.3893C37.6645 48.5292 37.9459 48.1273 38.0611 47.8458L39.5278 41.9197L40.5951 37.7077C40.6413 37.2524 40.4987 36.6568 39.658 36.4302C39.7152 36.3966 38.1445 36.0551 38.1445 36.0551L38.7566 33.578L42.9926 34.6278L43.8897 31.0068L46.0237 31.5357L45.1266 35.1567C45.5415 35.2469 45.947 35.3518 46.3568 35.4578L46.357 35.4578C46.4915 35.4926 46.6265 35.5275 46.7624 35.5621L47.6595 31.9411L49.7359 32.4557L48.8152 36.1716ZM43.1525 41.994C43.1848 42.0036 43.2194 42.014 43.2561 42.025C44.497 42.398 48.1766 43.5037 48.7964 41.0417C49.3735 38.7014 46.1857 37.9866 44.7045 37.6544C44.5296 37.6152 44.3784 37.5813 44.2601 37.5507L43.1525 41.994ZM41.5196 49.2939C41.4544 49.2744 41.3943 49.2567 41.3398 49.2406L42.4474 44.7974C42.5783 44.8314 42.7438 44.8703 42.9352 44.9152C44.6813 45.3255 48.5813 46.242 47.9751 48.5954C47.3868 51.039 43.0484 49.7487 41.5196 49.2939Z" fill="white"/>
<rect x="0.5" y="0.5" width="87" height="87" rx="43.5" stroke="black" stroke-opacity="0.1"/>
<path fill-rule="evenodd" clip-rule="evenodd" d="M126 50H122V48H126C128.209 48 130 46.2091 130 44C130 41.7909 128.209 40 126 40H122V38H126C129.314 38 132 40.6863 132 44C132 47.3137 129.314 50 126 50ZM114 40H118V38H114C110.686 38 108 40.6863 108 44C108 47.3137 110.686 50 114 50H118V48H114C111.791 48 110 46.2091 110 44C110 41.7909 111.791 40 114 40ZM115 45H125V43H115V45Z" fill="#656D85"/>
<rect x="152" width="88" height="88" rx="44" fill="white" fill-opacity="0.2"/>
<path d="M212.833 26.2222L198.233 37.0222L200.956 30.6555L212.833 26.2222Z" fill="#E17726" stroke="#E17726" stroke-width="0.277778" stroke-linecap="round" stroke-linejoin="round"/>
<path d="M179.167 26.2222L193.633 37.1111L191.045 30.6666L179.167 26.2222ZM207.578 51.2555L203.689 57.1888L212.011 59.4777L214.389 51.3888L207.578 51.2555ZM177.622 51.3888L179.989 59.4777L188.289 57.1888L184.422 51.2555L177.622 51.3888Z" fill="#E27625" stroke="#E27625" stroke-width="0.277778" stroke-linecap="round" stroke-linejoin="round"/>
<path d="M187.844 41.2333L185.533 44.7222L193.755 45.1L193.489 36.2444L187.844 41.2444V41.2333ZM204.155 41.2444L198.422 36.1333L198.233 45.1L206.455 44.7222L204.155 41.2444ZM188.289 57.1889L193.278 54.7889L188.989 51.4555L188.289 57.1889ZM198.733 54.7777L203.689 57.1889L203.022 51.4444L198.733 54.7777Z" fill="#E27625" stroke="#E27625" stroke-width="0.277778" stroke-linecap="round" stroke-linejoin="round"/>
<path d="M203.689 57.1891L198.734 54.7891L199.134 58.0113L199.089 59.378L203.689 57.1891ZM188.289 57.1891L192.911 59.378L192.878 58.0113L193.278 54.7891L188.289 57.1891Z" fill="#D5BFB2" stroke="#D5BFB2" stroke-width="0.277778" stroke-linecap="round" stroke-linejoin="round"/>
<path d="M192.989 49.311L188.878 48.111L191.789 46.7777L193 49.311H192.989ZM199 49.311L200.222 46.7666L203.145 48.0999L199 49.3222V49.311Z" fill="#233447" stroke="#233447" stroke-width="0.277778" stroke-linecap="round" stroke-linejoin="round"/>
<path d="M188.289 57.1888L189.011 51.2555L184.422 51.3888L188.289 57.1888ZM202.989 51.2555L203.689 57.1888L207.578 51.3888L202.989 51.2555ZM206.467 44.7222L198.245 45.0999L199 49.3222L200.222 46.7666L203.145 48.0999L206.467 44.7222ZM188.878 48.1111L191.789 46.7777L193 49.3111L193.767 45.0888L185.545 44.7222L188.878 48.1111Z" fill="#CC6228" stroke="#CC6228" stroke-width="0.277778" stroke-linecap="round" stroke-linejoin="round"/>
<path d="M185.544 44.7222L188.989 51.4444L188.878 48.1111L185.544 44.7222ZM203.144 48.1111L203.011 51.4444L206.456 44.7222L203.144 48.1111ZM193.767 45.0999L192.989 49.3222L193.967 54.2999L194.189 47.7333L193.767 45.0999ZM198.233 45.0999L197.833 47.7222L198.033 54.2999L199 49.3111L198.233 45.0888V45.0999Z" fill="#E27525" stroke="#E27525" stroke-width="0.277778" stroke-linecap="round" stroke-linejoin="round"/>
<path d="M199 49.3108L198.033 54.2997L198.733 54.7886L203.011 51.4553L203.144 48.1108L199 49.3108ZM188.878 48.1108L188.989 51.4442L193.278 54.7775L193.967 54.2997L193 49.3108L188.867 48.1108H188.878Z" fill="#F5841F" stroke="#F5841F" stroke-width="0.277778" stroke-linecap="round" stroke-linejoin="round"/>
<path d="M199.1 59.3779L199.134 58.0112L198.756 57.7001H193.245L192.878 58.0112L192.911 59.3779L188.289 57.189L189.911 58.5223L193.189 60.7779H198.8L202.089 58.5112L203.689 57.189L199.089 59.3779H199.1Z" fill="#C0AC9D" stroke="#C0AC9D" stroke-width="0.277778" stroke-linecap="round" stroke-linejoin="round"/>
<path d="M198.733 54.7776L198.033 54.2998H193.967L193.278 54.7887L192.878 58.0109L193.245 57.6998H198.756L199.133 58.0109L198.733 54.7887V54.7776Z" fill="#161616" stroke="#161616" stroke-width="0.277778" stroke-linecap="round" stroke-linejoin="round"/>
<path d="M213.456 37.7222L214.678 31.7777L212.833 26.2222L198.722 36.6666L204.156 41.2333L211.822 43.4666L213.511 41.4999L212.778 40.9666L213.944 39.8999L213.056 39.2111L214.222 38.3222L213.444 37.7222H213.456ZM177.322 31.7666L178.567 37.7222L177.767 38.3111L178.956 39.1999L178.067 39.8999L179.222 40.9666L178.489 41.4999L180.178 43.4666L187.844 41.2444L193.278 36.6555L179.167 26.2222L177.322 31.7666Z" fill="#763E1A" stroke="#763E1A" stroke-width="0.277778" stroke-linecap="round" stroke-linejoin="round"/>
<path d="M211.822 43.4669L204.156 41.2447L206.467 44.7224L203.022 51.4447L207.578 51.3891H214.389L211.822 43.4669ZM187.845 41.2335L180.178 43.4669L177.622 51.3891H184.433L188.989 51.4447L185.545 44.7224L187.856 41.2335H187.845ZM198.233 45.1002L198.733 36.6558L200.956 30.6558H191.045L193.267 36.6558L193.767 45.1002L193.956 47.7447V54.3002H198.033L198.056 47.7447L198.233 45.1002Z" fill="#F5841F" stroke="#F5841F" stroke-width="0.277778" stroke-linecap="round" stroke-linejoin="round"/>
<rect x="152.5" y="0.5" width="87" height="87" rx="43.5" stroke="black" stroke-opacity="0.1"/>
<defs>
<linearGradient id="paint0_linear_69_839" x1="44" y1="25.1113" x2="44" y2="62.8891" gradientUnits="userSpaceOnUse">
<stop stop-color="#FFB60A"/>
<stop offset="1" stop-color="#F58300"/>
</linearGradient>
</defs>
</svg>
