<svg width="240" height="88" viewBox="0 0 240 88" fill="none" xmlns="http://www.w3.org/2000/svg">
<rect width="88" height="88" rx="44" fill="white" fill-opacity="0.2"/>
<circle cx="44.0002" cy="44.0002" r="18.8889" fill="url(#paint0_linear_606_7378)"/>
<path fill-rule="evenodd" clip-rule="evenodd" d="M48.816 36.1716C51.4349 37.1325 53.3214 38.5561 52.8889 41.2879C52.5616 43.2765 51.5195 44.2485 50.1113 44.5915C51.9852 45.6404 52.8872 47.2325 51.9224 50.0252C50.7224 53.5278 48.0366 53.8455 44.4791 53.167L43.5633 56.8636L41.4963 56.3513L42.4121 52.6548C42.1872 52.5949 41.9501 52.5397 41.707 52.4831C41.3822 52.4075 41.0465 52.3293 40.7143 52.2339L39.7985 55.9307L37.7352 55.4193L38.6511 51.7226L34.541 50.6032L35.5626 47.9894C35.5626 47.9894 37.1139 48.4161 37.0899 48.3893C37.6652 48.5292 37.9466 48.1273 38.0618 47.8458L39.5285 41.9197L40.5959 37.7077C40.642 37.2524 40.4994 36.6568 39.6587 36.4302C39.7159 36.3966 38.1453 36.0551 38.1453 36.0551L38.7573 33.578L42.9933 34.6278L43.8904 31.0068L46.0244 31.5357L45.1274 35.1567C45.5423 35.2469 45.9477 35.3518 46.3575 35.4578L46.3577 35.4578C46.4922 35.4926 46.6272 35.5275 46.7632 35.5621L47.6602 31.9411L49.7366 32.4557L48.816 36.1716ZM43.1533 41.994C43.1855 42.0036 43.2201 42.014 43.2568 42.025C44.4977 42.398 48.1773 43.5037 48.7971 41.0417C49.3742 38.7014 46.1864 37.9866 44.7053 37.6544C44.5303 37.6152 44.3792 37.5813 44.2609 37.5507L43.1533 41.994ZM41.5204 49.2939C41.4551 49.2744 41.395 49.2567 41.3405 49.2406L42.4481 44.7974C42.579 44.8314 42.7445 44.8703 42.9359 44.9152C44.682 45.3255 48.582 46.242 47.9758 48.5954C47.3875 51.039 43.0492 49.7487 41.5204 49.2939Z" fill="white"/>
<rect x="0.5" y="0.5" width="87" height="87" rx="43.5" stroke="black" stroke-opacity="0.1"/>
<path fill-rule="evenodd" clip-rule="evenodd" d="M126 50H122V48H126C128.209 48 130 46.2091 130 44C130 41.7909 128.209 40 126 40H122V38H126C129.314 38 132 40.6863 132 44C132 47.3137 129.314 50 126 50ZM114 40H118V38H114C110.686 38 108 40.6863 108 44C108 47.3137 110.686 50 114 50H118V48H114C111.791 48 110 46.2091 110 44C110 41.7909 111.791 40 114 40ZM115 45H125V43H115V45Z" fill="#656D85"/>
<rect x="152" width="88" height="88" rx="44" fill="white" fill-opacity="0.2"/>
<path d="M198.249 45.5659L198.865 37.0838L201.371 31.042H190.656L193.163 37.0838L193.778 45.5659L193.969 48.2414L193.984 54.8271H198.044L198.058 48.2414L198.249 45.5659Z" fill="url(#paint1_linear_606_7378)"/>
<path d="M211.839 43.9337L204.173 41.6846L206.489 45.198L203.029 51.9601L207.603 51.9013H214.404L211.839 43.9337Z" fill="url(#paint2_linear_606_7378)"/>
<path d="M187.857 41.6846L180.191 43.9337L177.641 51.9013H184.442L189 51.9601L185.541 45.198L187.857 41.6846Z" fill="url(#paint3_linear_606_7378)"/>
<path d="M199.012 49.8139L198.045 54.8267L198.748 55.3117L203.029 51.9601L203.161 48.5938L199.012 49.8139Z" fill="#ACACAC"/>
<path d="M188.883 48.5938L189 51.9601L193.28 55.3117L193.984 54.8267L193.016 49.8139L188.883 48.5938Z" fill="#ACACAC"/>
<path d="M213.465 38.1566L214.696 32.1588L212.849 26.5874L198.748 37.0834L204.01 41.817L211.837 43.9338L213.523 41.9492L212.79 41.4201L213.963 40.3469L213.069 39.6413L214.241 38.7446L213.465 38.1566Z" fill="url(#paint4_linear_606_7378)"/>
<path d="M178.565 38.1566L177.334 32.1588L179.181 26.5874L193.282 37.0834L188.02 41.817L180.192 43.9338L178.507 41.9492L179.24 41.4201L178.067 40.3469L178.961 39.6413L177.788 38.7446L178.565 38.1566Z" fill="url(#paint5_linear_606_7378)"/>
<path d="M185.543 45.1978L188.885 48.5936L189.002 51.9599L185.543 45.1978Z" fill="#8D8D8D"/>
<path d="M206.489 45.1978L203.029 51.9599L203.161 48.5936L206.489 45.1978Z" fill="#8D8D8D"/>
<path d="M203.717 57.7376L198.748 55.312L199.144 58.5609L199.1 59.928L203.717 57.7376Z" fill="#FF9F5A"/>
<path d="M188.312 57.7372L192.93 59.9275L192.9 58.5604L193.282 55.3115L188.312 57.7372Z" fill="#FF9F5A"/>
<path d="M207.603 51.9014L203.719 57.7375L212.03 60.0307L214.404 51.9014H207.603Z" fill="url(#paint6_linear_606_7378)"/>
<path d="M177.641 51.9014L180.001 60.0307L188.312 57.7375L184.442 51.9014H177.641Z" fill="url(#paint7_linear_606_7378)"/>
<path d="M179.182 26.5874L193.283 37.0834L191.069 31.0416L179.182 26.5874Z" fill="#757575"/>
<path d="M200.961 31.0416L198.748 37.0834L212.849 26.5874L200.961 31.0416Z" fill="#757575"/>
<path d="M187.859 41.6847L185.543 45.1981L193.781 45.5655L193.282 37.0835L187.859 41.6847Z" fill="url(#paint8_linear_606_7378)"/>
<path d="M204.172 41.6847L198.748 37.0835L198.25 45.5655L206.488 45.1981L204.172 41.6847Z" fill="url(#paint9_linear_606_7378)"/>
<path d="M188.312 57.7371L193.282 55.3116L189.001 51.96L188.312 57.7371Z" fill="url(#paint10_linear_606_7378)"/>
<path d="M198.748 55.3116L203.717 57.7371L203.028 51.96L198.748 55.3116Z" fill="url(#paint11_linear_606_7378)"/>
<path d="M203.029 51.9602L203.718 57.7375L207.603 51.9014L203.029 51.9602Z" fill="url(#paint12_linear_606_7378)"/>
<path d="M189.001 51.9602L188.312 57.7375L184.428 51.9014L189.001 51.9602Z" fill="url(#paint13_linear_606_7378)"/>
<path d="M206.488 45.1978L198.25 45.5653L199.012 49.8137L200.229 47.2558L203.16 48.5936L206.488 45.1978Z" fill="#666666"/>
<path d="M188.885 48.5936L191.802 47.2558L193.019 49.8137L193.781 45.5653L185.543 45.1978L188.885 48.5936Z" fill="#666666"/>
<path d="M199.013 49.8138L198.061 48.2408L198.251 45.5654L199.013 49.8138Z" fill="#8D8D8D"/>
<path d="M193.02 49.8138L193.782 45.5654L193.972 48.2408L193.02 49.8138Z" fill="#8D8D8D"/>
<path d="M198.06 48.2412L199.012 49.8141L198.045 54.827L198.06 48.2412Z" fill="#8D8D8D"/>
<path d="M193.972 48.2412L193.987 54.827L193.02 49.8141L193.972 48.2412Z" fill="#8D8D8D"/>
<path d="M199.127 59.9095L199.145 58.5599L198.778 58.2366H193.252L192.9 58.5599L192.93 59.9271L188.312 57.7368L189.925 59.0597L193.208 61.3383H198.822L202.106 59.0597L203.718 57.7368L199.127 59.9095Z" fill="#DF7554"/>
<path d="M198.751 55.3118L198.047 54.8267H193.987L193.283 55.3118L192.902 58.5606L193.254 58.2371H198.78L199.147 58.5606L198.751 55.3118Z" fill="#161616" stroke="#161616" stroke-width="0.00927156" stroke-miterlimit="10" stroke-linejoin="round"/>
<path d="M200.23 47.2559L199.014 49.8137L203.162 48.5936L200.23 47.2559Z" fill="#161616"/>
<path d="M191.8 47.2559L193.016 49.8137L188.883 48.5936L191.8 47.2559Z" fill="#161616"/>
<path style="mix-blend-mode:color-dodge" d="M213.524 41.9492L212.791 41.4201L213.964 40.3469L213.07 39.6413L214.242 38.7446L213.466 38.1566L214.697 32.1588L212.85 26.5874L200.962 31.0416H191.068L179.181 26.5874L177.334 32.1588L178.58 38.1566L177.788 38.7446L178.961 39.6413L178.067 40.3469L179.24 41.4201L178.507 41.9492L180.192 43.9338L177.642 51.9014L180.002 60.0306L188.313 57.7374L193.282 55.3119L192.876 58.5988L193.252 58.2518L198.778 58.2372L199.145 58.5606L198.749 55.3119L203.718 57.7374L212.029 60.0306L214.404 51.9014L211.839 43.9338L213.524 41.9492Z" fill="url(#paint14_linear_606_7378)" fill-opacity="0.1"/>
<path style="mix-blend-mode:overlay" d="M213.524 41.9492L212.791 41.4201L213.964 40.3469L213.07 39.6413L214.242 38.7446L213.466 38.1566L214.697 32.1588L212.85 26.5874L200.962 31.0416H191.068L179.181 26.5874L177.334 32.1588L178.58 38.1566L177.788 38.7446L178.961 39.6413L178.067 40.3469L179.24 41.4201L178.507 41.9492L180.192 43.9338L177.642 51.9014L180.002 60.0306L188.313 57.7374L193.282 55.3119L193.971 54.8121H194.997H197.049H198.075L198.749 55.3119L203.718 57.7374L212.029 60.0306L214.404 51.9014L211.839 43.9338L213.524 41.9492Z" fill="url(#paint15_radial_606_7378)"/>
<rect x="152.5" y="0.5" width="87" height="87" rx="43.5" stroke="black" stroke-opacity="0.1"/>
<defs>
<linearGradient id="paint0_linear_606_7378" x1="44.0002" y1="25.1113" x2="44.0002" y2="62.8891" gradientUnits="userSpaceOnUse">
<stop stop-color="#FFB60A"/>
<stop offset="1" stop-color="#F58300"/>
</linearGradient>
<linearGradient id="paint1_linear_606_7378" x1="196.014" y1="31.042" x2="196.014" y2="54.8271" gradientUnits="userSpaceOnUse">
<stop stop-color="#8F8F8F"/>
<stop offset="1" stop-color="#AEAEAE"/>
</linearGradient>
<linearGradient id="paint2_linear_606_7378" x1="208.716" y1="41.6846" x2="208.716" y2="51.9601" gradientUnits="userSpaceOnUse">
<stop stop-color="#696969"/>
<stop offset="1" stop-color="#A6A6A6"/>
</linearGradient>
<linearGradient id="paint3_linear_606_7378" x1="183.321" y1="41.6846" x2="183.321" y2="51.9601" gradientUnits="userSpaceOnUse">
<stop stop-color="#696969"/>
<stop offset="1" stop-color="#A6A6A6"/>
</linearGradient>
<linearGradient id="paint4_linear_606_7378" x1="203.351" y1="40.9937" x2="216.792" y2="30.5207" gradientUnits="userSpaceOnUse">
<stop stop-color="#1B1B1B"/>
<stop offset="1" stop-color="#565656"/>
</linearGradient>
<linearGradient id="paint5_linear_606_7378" x1="188.679" y1="40.9937" x2="175.238" y2="30.5207" gradientUnits="userSpaceOnUse">
<stop stop-color="#1B1B1B"/>
<stop offset="1" stop-color="#565656"/>
</linearGradient>
<linearGradient id="paint6_linear_606_7378" x1="209.062" y1="51.9014" x2="209.062" y2="60.0307" gradientUnits="userSpaceOnUse">
<stop stop-color="#787878"/>
<stop offset="1" stop-color="#5E5E5E"/>
</linearGradient>
<linearGradient id="paint7_linear_606_7378" x1="182.976" y1="51.9014" x2="182.976" y2="60.0307" gradientUnits="userSpaceOnUse">
<stop stop-color="#787878"/>
<stop offset="1" stop-color="#5E5E5E"/>
</linearGradient>
<linearGradient id="paint8_linear_606_7378" x1="189.662" y1="37.0835" x2="189.662" y2="45.5655" gradientUnits="userSpaceOnUse">
<stop stop-color="#7A7A7A"/>
<stop offset="1" stop-color="#949494"/>
</linearGradient>
<linearGradient id="paint9_linear_606_7378" x1="202.369" y1="37.0835" x2="202.369" y2="45.5655" gradientUnits="userSpaceOnUse">
<stop stop-color="#7A7A7A"/>
<stop offset="1" stop-color="#949494"/>
</linearGradient>
<linearGradient id="paint10_linear_606_7378" x1="190.797" y1="61.2212" x2="190.797" y2="23.0217" gradientUnits="userSpaceOnUse">
<stop stop-color="#7A7C7D"/>
<stop offset="1" stop-color="#CECECF"/>
</linearGradient>
<linearGradient id="paint11_linear_606_7378" x1="201.232" y1="61.2212" x2="201.232" y2="23.0217" gradientUnits="userSpaceOnUse">
<stop stop-color="#7A7C7D"/>
<stop offset="1" stop-color="#CECECF"/>
</linearGradient>
<linearGradient id="paint12_linear_606_7378" x1="205.316" y1="44.463" x2="205.316" y2="59.5888" gradientUnits="userSpaceOnUse">
<stop stop-color="#3E3E3E"/>
<stop offset="1" stop-color="#616161"/>
</linearGradient>
<linearGradient id="paint13_linear_606_7378" x1="186.714" y1="44.463" x2="186.714" y2="59.5888" gradientUnits="userSpaceOnUse">
<stop stop-color="#3E3E3E"/>
<stop offset="1" stop-color="#616161"/>
</linearGradient>
<linearGradient id="paint14_linear_606_7378" x1="195.949" y1="30.9975" x2="195.949" y2="63.0442" gradientUnits="userSpaceOnUse">
<stop stop-color="#FF60DC"/>
<stop offset="1" stop-color="#6B71FF"/>
</linearGradient>
<radialGradient id="paint15_radial_606_7378" cx="0" cy="0" r="1" gradientUnits="userSpaceOnUse" gradientTransform="translate(195.949 30.336) rotate(90) scale(30.8707 34.4888)">
<stop stop-color="#FF60DC"/>
<stop offset="1" stop-color="#6B71FF"/>
</radialGradient>
</defs>
</svg>
