<svg width="25" height="24" viewBox="0 0 25 24" fill="none" xmlns="http://www.w3.org/2000/svg">
<path fill-rule="evenodd" clip-rule="evenodd" d="M21 12C21 16.6944 17.1944 20.5 12.5 20.5C7.80558 20.5 4 16.6944 4 12C4 7.30558 7.80558 3.5 12.5 3.5C17.1944 3.5 21 7.30558 21 12ZM22.5 12C22.5 17.5228 18.0228 22 12.5 22C6.97715 22 2.5 17.5228 2.5 12C2.5 6.47715 6.97715 2 12.5 2C18.0228 2 22.5 6.47715 22.5 12ZM13.5 12H16.5L12.5 16L8.5 12H11.5V8H13.5V12Z" fill="url(#paint0_linear_2214_1247)"/>
<defs>
<linearGradient id="paint0_linear_2214_1247" x1="12.5" y1="2" x2="12.5" y2="22" gradientUnits="userSpaceOnUse">
<stop stop-color="#E1E6F0"/>
<stop offset="1" stop-color="#CED3E0"/>
</linearGradient>
</defs>
</svg>
