<svg width="72" height="72" viewBox="0 0 72 72" fill="none" xmlns="http://www.w3.org/2000/svg">
<path d="M40.0479 38.8178L41.1559 23.5501L45.6677 12.6748H26.3809L30.8925 23.5501L32.0006 38.8178L32.3437 43.6337L32.3701 55.488H39.6784L39.7047 43.6337L40.0479 38.8178Z" fill="url(#paint0_linear_679_9329)"/>
<path d="M64.5091 35.8799L50.7103 31.8315L54.879 38.1556L48.6523 50.3275L56.8841 50.2216H69.1263L64.5091 35.8799Z" fill="url(#paint1_linear_679_9329)"/>
<path d="M21.3429 31.8315L7.54398 35.8799L2.95312 50.2216H15.1954L23.4009 50.3275L17.1742 38.1556L21.3429 31.8315Z" fill="url(#paint2_linear_679_9329)"/>
<path d="M41.4209 46.4648L39.6797 55.4879L40.9461 56.3609L48.6503 50.3279L48.8878 44.2686L41.4209 46.4648Z" fill="#ACACAC"/>
<path d="M23.1895 44.2686L23.4005 50.3279L31.1047 56.3609L32.3711 55.4879L30.6298 46.4648L23.1895 44.2686Z" fill="#ACACAC"/>
<path d="M67.435 25.4812L69.6513 14.6853L66.3267 4.65674L40.9453 23.5496L50.4171 32.0699L64.5063 35.8803L67.5406 32.308L66.2214 31.3555L68.3321 29.4239L66.7226 28.1537L68.8333 26.5396L67.435 25.4812Z" fill="url(#paint3_linear_679_9329)"/>
<path d="M4.61666 25.4812L2.40039 14.6853L5.7248 4.65674L31.1064 23.5496L21.6345 32.0699L7.54531 35.8803L4.51113 32.308L5.83032 31.3555L3.7196 29.4239L5.32902 28.1537L3.2183 26.5396L4.61666 25.4812Z" fill="url(#paint4_linear_679_9329)"/>
<path d="M17.1758 38.1558L23.1914 44.2682L23.4024 50.3276L17.1758 38.1558Z" fill="#8D8D8D"/>
<path d="M54.879 38.1558L48.6523 50.3276L48.8896 44.2682L54.879 38.1558Z" fill="#8D8D8D"/>
<path d="M49.8895 60.727L40.9453 56.3608L41.6577 62.2088L41.5785 64.6695L49.8895 60.727Z" fill="#FF9F5A"/>
<path d="M22.1621 60.726L30.4732 64.6686L30.4204 62.2079L31.1064 56.3599L22.1621 60.726Z" fill="#FF9F5A"/>
<path d="M56.8863 50.2217L49.8945 60.7266L64.8544 64.8545L69.1287 50.2217H56.8863Z" fill="url(#paint5_linear_679_9329)"/>
<path d="M2.95312 50.2217L7.20097 64.8545L22.1608 60.7266L15.1954 50.2217H2.95312Z" fill="url(#paint6_linear_679_9329)"/>
<path d="M5.72461 4.65674L31.1062 23.5496L27.1222 12.6743L5.72461 4.65674Z" fill="#757575"/>
<path d="M44.9292 12.6743L40.9453 23.5496L66.3267 4.65674L44.9292 12.6743Z" fill="#757575"/>
<path d="M21.3445 31.832L17.1758 38.1561L32.0038 38.8175L31.1066 23.5498L21.3445 31.832Z" fill="url(#paint7_linear_679_9329)"/>
<path d="M50.71 31.832L40.9479 23.5498L40.0508 38.8175L54.8787 38.1561L50.71 31.832Z" fill="url(#paint8_linear_679_9329)"/>
<path d="M22.1621 60.726L31.1064 56.3601L23.4022 50.3271L22.1621 60.726Z" fill="url(#paint9_linear_679_9329)"/>
<path d="M40.9453 56.3601L49.8895 60.726L48.6495 50.3271L40.9453 56.3601Z" fill="url(#paint10_linear_679_9329)"/>
<path d="M48.6523 50.3275L49.8923 60.7266L56.8841 50.2217L48.6523 50.3275Z" fill="url(#paint11_linear_679_9329)"/>
<path d="M23.4018 50.3275L22.1617 60.7266L15.1699 50.2217L23.4018 50.3275Z" fill="url(#paint12_linear_679_9329)"/>
<path d="M54.8787 38.1558L40.0508 38.8174L41.423 46.4645L43.6127 41.8603L48.8896 44.2682L54.8787 38.1558Z" fill="#666666"/>
<path d="M23.1914 44.2682L28.4419 41.8603L30.6318 46.4645L32.0038 38.8174L17.1758 38.1558L23.1914 44.2682Z" fill="#666666"/>
<path d="M41.4241 46.464L39.709 43.6325L40.0521 38.8169L41.4241 46.464Z" fill="#8D8D8D"/>
<path d="M30.6328 46.464L32.0048 38.8169L32.3476 43.6325L30.6328 46.464Z" fill="#8D8D8D"/>
<path d="M39.7061 43.6333L41.4209 46.4645L39.6797 55.4876L39.7061 43.6333Z" fill="#8D8D8D"/>
<path d="M32.3476 43.6333L32.374 55.4876L30.6328 46.4645L32.3476 43.6333Z" fill="#8D8D8D"/>
<path d="M41.6283 64.6369L41.66 62.2077L41.0005 61.6257H31.0536L30.4204 62.2077L30.4732 64.6686L22.1621 60.7261L25.0644 63.1073L30.9744 67.2088H41.0796L46.9896 63.1073L49.8919 60.7261L41.6283 64.6369Z" fill="#DF7554"/>
<path d="M40.9492 56.3611L39.6828 55.4878H32.3743L31.1079 56.3611L30.4219 62.2088L31.0551 61.6266H41.002L41.6615 62.2088L40.9492 56.3611Z" fill="#161616" stroke="#161616" stroke-width="0.0166888" stroke-miterlimit="10" stroke-linejoin="round"/>
<path d="M43.6138 41.8604L41.4238 46.4645L48.8907 44.2683L43.6138 41.8604Z" fill="#161616"/>
<path d="M28.4399 41.8604L30.6298 46.4645L23.1895 44.2683L28.4399 41.8604Z" fill="#161616"/>
<path style="mix-blend-mode:color-dodge" d="M67.5429 32.308L66.2237 31.3555L68.3345 29.4238L66.725 28.1537L68.8357 26.5396L67.4373 25.4812L69.6536 14.6853L66.3293 4.65674L44.9316 12.6743H27.1224L5.72481 4.65674L2.40039 14.6853L4.64305 25.4812L3.2183 26.5396L5.32903 28.1537L3.7196 29.4238L5.83033 31.3555L4.51113 32.308L7.54532 35.8803L2.95446 50.222L7.2023 64.8545L22.1621 60.7267L31.1064 56.3608L30.3755 62.2773L31.0536 61.6527L41.0005 61.6263L41.6601 62.2085L40.9477 56.3608L49.8919 60.7267L64.8518 64.8545L69.126 50.222L64.5086 35.8803L67.5429 32.308Z" fill="url(#paint13_linear_679_9329)" fill-opacity="0.1"/>
<path style="mix-blend-mode:overlay" d="M67.5429 32.308L66.2237 31.3555L68.3345 29.4238L66.725 28.1537L68.8357 26.5396L67.4373 25.4812L69.6536 14.6853L66.3293 4.65674L44.9316 12.6743H27.1224L5.72481 4.65674L2.40039 14.6853L4.64305 25.4812L3.2183 26.5396L5.32903 28.1537L3.7196 29.4238L5.83033 31.3555L4.51113 32.308L7.54532 35.8803L2.95446 50.222L7.2023 64.8545L22.1621 60.7267L31.1064 56.3608L32.3464 55.4611H34.1934H37.887H39.7341L40.9477 56.3608L49.8919 60.7267L64.8518 64.8545L69.126 50.222L64.5086 35.8803L67.5429 32.308Z" fill="url(#paint14_radial_679_9329)"/>
<defs>
<linearGradient id="paint0_linear_679_9329" x1="36.0243" y1="12.6748" x2="36.0243" y2="55.488" gradientUnits="userSpaceOnUse">
<stop stop-color="#8F8F8F"/>
<stop offset="1" stop-color="#AEAEAE"/>
</linearGradient>
<linearGradient id="paint1_linear_679_9329" x1="58.8893" y1="31.8315" x2="58.8893" y2="50.3275" gradientUnits="userSpaceOnUse">
<stop stop-color="#696969"/>
<stop offset="1" stop-color="#A6A6A6"/>
</linearGradient>
<linearGradient id="paint2_linear_679_9329" x1="13.177" y1="31.8315" x2="13.177" y2="50.3275" gradientUnits="userSpaceOnUse">
<stop stop-color="#696969"/>
<stop offset="1" stop-color="#A6A6A6"/>
</linearGradient>
<linearGradient id="paint3_linear_679_9329" x1="49.2299" y1="30.5881" x2="73.4243" y2="11.7367" gradientUnits="userSpaceOnUse">
<stop stop-color="#1B1B1B"/>
<stop offset="1" stop-color="#565656"/>
</linearGradient>
<linearGradient id="paint4_linear_679_9329" x1="22.8218" y1="30.5881" x2="-1.37265" y2="11.7367" gradientUnits="userSpaceOnUse">
<stop stop-color="#1B1B1B"/>
<stop offset="1" stop-color="#565656"/>
</linearGradient>
<linearGradient id="paint5_linear_679_9329" x1="59.5117" y1="50.2217" x2="59.5117" y2="64.8545" gradientUnits="userSpaceOnUse">
<stop stop-color="#787878"/>
<stop offset="1" stop-color="#5E5E5E"/>
</linearGradient>
<linearGradient id="paint6_linear_679_9329" x1="12.557" y1="50.2217" x2="12.557" y2="64.8545" gradientUnits="userSpaceOnUse">
<stop stop-color="#787878"/>
<stop offset="1" stop-color="#5E5E5E"/>
</linearGradient>
<linearGradient id="paint7_linear_679_9329" x1="24.5897" y1="23.5498" x2="24.5897" y2="38.8175" gradientUnits="userSpaceOnUse">
<stop stop-color="#7A7A7A"/>
<stop offset="1" stop-color="#949494"/>
</linearGradient>
<linearGradient id="paint8_linear_679_9329" x1="47.4649" y1="23.5498" x2="47.4649" y2="38.8175" gradientUnits="userSpaceOnUse">
<stop stop-color="#7A7A7A"/>
<stop offset="1" stop-color="#949494"/>
</linearGradient>
<linearGradient id="paint9_linear_679_9329" x1="26.6342" y1="66.9973" x2="26.6342" y2="-1.76178" gradientUnits="userSpaceOnUse">
<stop stop-color="#7A7C7D"/>
<stop offset="1" stop-color="#CECECF"/>
</linearGradient>
<linearGradient id="paint10_linear_679_9329" x1="45.4173" y1="66.9973" x2="45.4173" y2="-1.76178" gradientUnits="userSpaceOnUse">
<stop stop-color="#7A7C7D"/>
<stop offset="1" stop-color="#CECECF"/>
</linearGradient>
<linearGradient id="paint11_linear_679_9329" x1="52.7682" y1="36.8327" x2="52.7682" y2="64.0591" gradientUnits="userSpaceOnUse">
<stop stop-color="#3E3E3E"/>
<stop offset="1" stop-color="#616161"/>
</linearGradient>
<linearGradient id="paint12_linear_679_9329" x1="19.2858" y1="36.8327" x2="19.2858" y2="64.0591" gradientUnits="userSpaceOnUse">
<stop stop-color="#3E3E3E"/>
<stop offset="1" stop-color="#616161"/>
</linearGradient>
<linearGradient id="paint13_linear_679_9329" x1="35.9082" y1="12.5949" x2="35.9082" y2="70.2789" gradientUnits="userSpaceOnUse">
<stop stop-color="#FF60DC"/>
<stop offset="1" stop-color="#6B71FF"/>
</linearGradient>
<radialGradient id="paint14_radial_679_9329" cx="0" cy="0" r="1" gradientUnits="userSpaceOnUse" gradientTransform="translate(35.9082 11.4042) rotate(90) scale(55.5672 62.0798)">
<stop stop-color="#FF60DC"/>
<stop offset="1" stop-color="#6B71FF"/>
</radialGradient>
</defs>
</svg>
