<svg width="72" height="72" viewBox="0 0 72 72" fill="none" xmlns="http://www.w3.org/2000/svg">
<path d="M66.3001 3.99988L40.0201 23.4399L44.9201 11.9799L66.3001 3.99988Z" fill="#E17726" stroke="#E17726" stroke-width="0.5" stroke-linecap="round" stroke-linejoin="round"/>
<path d="M5.70017 3.99988L31.7402 23.5999L27.0802 11.9999L5.70017 3.99988ZM56.8402 49.0599L49.8402 59.7399L64.8202 63.8599L69.1002 49.2999L56.8402 49.0599ZM2.92017 49.2999L7.18017 63.8599L22.1202 59.7399L15.1602 49.0599L2.92017 49.2999Z" fill="#E27625" stroke="#E27625" stroke-width="0.5" stroke-linecap="round" stroke-linejoin="round"/>
<path d="M21.32 31.0201L17.16 37.3001L31.96 37.9801L31.48 22.0401L21.32 31.0401V31.0201ZM50.68 31.0401L40.36 21.8401L40.02 37.9801L54.82 37.3001L50.68 31.0401ZM22.12 59.7401L31.1 55.4201L23.38 49.4201L22.12 59.7401ZM40.92 55.4001L49.84 59.7401L48.64 49.4001L40.92 55.4001Z" fill="#E27625" stroke="#E27625" stroke-width="0.5" stroke-linecap="round" stroke-linejoin="round"/>
<path d="M49.8401 59.7399L40.9201 55.4199L41.6401 61.2199L41.5601 63.6799L49.8401 59.7399ZM22.1201 59.7399L30.4401 63.6799L30.3801 61.2199L31.1001 55.4199L22.1201 59.7399Z" fill="#D5BFB2" stroke="#D5BFB2" stroke-width="0.5" stroke-linecap="round" stroke-linejoin="round"/>
<path d="M30.5802 45.56L23.1802 43.4L28.4202 41L30.6002 45.56H30.5802ZM41.4002 45.56L43.6002 40.98L48.8602 43.38L41.4002 45.58V45.56Z" fill="#233447" stroke="#233447" stroke-width="0.5" stroke-linecap="round" stroke-linejoin="round"/>
<path d="M22.1202 59.7399L23.4202 49.0599L15.1602 49.2999L22.1202 59.7399ZM48.5802 49.0599L49.8402 59.7399L56.8402 49.2999L48.5802 49.0599ZM54.8402 37.2999L40.0402 37.9799L41.4002 45.5799L43.6002 40.9799L48.8602 43.3799L54.8402 37.2999ZM23.1802 43.3999L28.4202 40.9999L30.6002 45.5599L31.9802 37.9599L17.1802 37.2999L23.1802 43.3999Z" fill="#CC6228" stroke="#CC6228" stroke-width="0.5" stroke-linecap="round" stroke-linejoin="round"/>
<path d="M17.1801 37.2999L23.3801 49.3999L23.1801 43.3999L17.1801 37.2999ZM48.8601 43.3999L48.6201 49.3999L54.8201 37.2999L48.8601 43.3999ZM31.9801 37.9799L30.5801 45.5799L32.3401 54.5399L32.7401 42.7199L31.9801 37.9799ZM40.0201 37.9799L39.3001 42.6999L39.6601 54.5399L41.4001 45.5599L40.0201 37.9599V37.9799Z" fill="#E27525" stroke="#E27525" stroke-width="0.5" stroke-linecap="round" stroke-linejoin="round"/>
<path d="M41.4002 45.56L39.6602 54.54L40.9202 55.42L48.6202 49.42L48.8602 43.4L41.4002 45.56ZM23.1802 43.4L23.3802 49.4L31.1002 55.4L32.3402 54.54L30.6002 45.56L23.1602 43.4H23.1802Z" fill="#F5841F" stroke="#F5841F" stroke-width="0.5" stroke-linecap="round" stroke-linejoin="round"/>
<path d="M41.5801 63.6799L41.6401 61.2199L40.9601 60.6599H31.0401L30.3801 61.2199L30.4401 63.6799L22.1201 59.7399L25.0401 62.1399L30.9401 66.1999H41.0401L46.9601 62.1199L49.8401 59.7399L41.5601 63.6799H41.5801Z" fill="#C0AC9D" stroke="#C0AC9D" stroke-width="0.5" stroke-linecap="round" stroke-linejoin="round"/>
<path d="M40.9202 55.4L39.6602 54.54H32.3402L31.1002 55.42L30.3802 61.22L31.0402 60.66H40.9603L41.6402 61.22L40.9202 55.42V55.4Z" fill="#161616" stroke="#161616" stroke-width="0.5" stroke-linecap="round" stroke-linejoin="round"/>
<path d="M67.42 24.6999L69.62 13.9999L66.3 3.99988L40.9 22.7999L50.68 31.0199L64.48 35.0399L67.52 31.4999L66.2 30.5399L68.3 28.6199L66.7 27.3799L68.8 25.7799L67.4 24.6999H67.42ZM2.38 13.9799L4.62 24.6999L3.18 25.7599L5.32 27.3599L3.72 28.6199L5.8 30.5399L4.48 31.4999L7.52 35.0399L21.32 31.0399L31.1 22.7799L5.70001 3.99988L2.38 13.9799Z" fill="#763E1A" stroke="#763E1A" stroke-width="0.5" stroke-linecap="round" stroke-linejoin="round"/>
<path d="M64.4802 35.0399L50.6802 31.0399L54.8402 37.2999L48.6402 49.3999L56.8402 49.2999H69.1002L64.4802 35.0399ZM21.3202 31.0199L7.52017 35.0399L2.92017 49.2999H15.1802L23.3802 49.3999L17.1802 37.2999L21.3402 31.0199H21.3202ZM40.0202 37.9799L40.9202 22.7799L44.9202 11.9799H27.0802L31.0802 22.7799L31.9802 37.9799L32.3202 42.7399V54.5399H39.6602L39.7002 42.7399L40.0202 37.9799Z" fill="#F5841F" stroke="#F5841F" stroke-width="0.5" stroke-linecap="round" stroke-linejoin="round"/>
</svg>
