<svg width="25" height="24" viewBox="0 0 25 24" fill="none" xmlns="http://www.w3.org/2000/svg">
<path fill-rule="evenodd" clip-rule="evenodd" d="M15 6.5H15.2785L15.5385 6.40002L20.5734 4.46352L20.9388 5.55996L19.5448 11.1362L19.4388 11.56L19.577 11.9743L20.909 15.9705L20.0814 18.1775L17.0371 17.3077L16.2614 17.0861L15.6488 17.6111L13.4451 19.5H11.5549L9.35119 17.6111L8.73864 17.0861L7.96292 17.3077L4.91857 18.1775L4.09096 15.9705L5.42302 11.9743L5.56115 11.56L5.45521 11.1362L4.06115 5.55996L4.42663 4.46352L9.46153 6.40002L9.72148 6.5H10H15ZM15 5L20.0985 3.03902L21.5 2.5L21.9748 3.92449L22.5 5.5L21 11.5L22.5 16L21 20L16.625 18.75L14 21H11L8.375 18.75L4 20L2.5 16L4 11.5L2.5 5.5L3.02517 3.92449L3.5 2.5L4.90146 3.03902L10 5H15ZM10.4999 12H8.49994L7.5 13L10.9999 14L10.4999 12ZM13.9999 14L17.5 13L16.5 12H14.5L13.9999 14ZM10.25 17.75L11 15.5H14L14.75 17.75H10.25Z" fill="url(#paint0_linear_779_1227)"/>
<defs>
<linearGradient id="paint0_linear_779_1227" x1="12.5" y1="2.5" x2="12.5" y2="21" gradientUnits="userSpaceOnUse">
<stop stop-color="#E1E6F0"/>
<stop offset="1" stop-color="#CED3E0"/>
</linearGradient>
</defs>
</svg>
