<svg width="25" height="24" viewBox="0 0 25 24" fill="none" xmlns="http://www.w3.org/2000/svg">
<path fill-rule="evenodd" clip-rule="evenodd" d="M19.5 7.5C20.3284 7.5 21 6.82843 21 6C21 5.17157 20.3284 4.5 19.5 4.5C18.6716 4.5 18 5.17157 18 6C18 6.82843 18.6716 7.5 19.5 7.5ZM22.5 6C22.5 7.39788 21.5439 8.57245 20.25 8.90549V15.5C20.25 17.8472 18.3472 19.75 16 19.75C13.6528 19.75 11.75 17.8472 11.75 15.5V8.5C11.75 6.98122 10.5188 5.75 9 5.75C7.48122 5.75 6.25 6.98122 6.25 8.5V15H9.5L5.5 20L1.5 15H4.75V8.5C4.75 6.15279 6.65279 4.25 9 4.25C11.3472 4.25 13.25 6.15279 13.25 8.5V15.5C13.25 17.0188 14.4812 18.25 16 18.25C17.5188 18.25 18.75 17.0188 18.75 15.5V8.90549C17.4561 8.57245 16.5 7.39788 16.5 6C16.5 4.34315 17.8431 3 19.5 3C21.1569 3 22.5 4.34315 22.5 6Z" fill="url(#paint0_linear_2214_153)"/>
<defs>
<linearGradient id="paint0_linear_2214_153" x1="12" y1="3" x2="12" y2="20" gradientUnits="userSpaceOnUse">
<stop stop-color="#E1E6F0"/>
<stop offset="1" stop-color="#CED3E0"/>
</linearGradient>
</defs>
</svg>
