<svg width="18" height="18" viewBox="0 0 18 18" fill="none" xmlns="http://www.w3.org/2000/svg">
<g clip-path="url(#clip0_2462_1233)">
<path d="M9 16.5C4.85775 16.5 1.5 13.1423 1.5 9C1.5 4.85775 4.85775 1.5 9 1.5C13.1423 1.5 16.5 4.85775 16.5 9C16.5 13.1423 13.1423 16.5 9 16.5ZM9 15C10.5913 15 12.1174 14.3679 13.2426 13.2426C14.3679 12.1174 15 10.5913 15 9C15 7.4087 14.3679 5.88258 13.2426 4.75736C12.1174 3.63214 10.5913 3 9 3C7.4087 3 5.88258 3.63214 4.75736 4.75736C3.63214 5.88258 3 7.4087 3 9C3 10.5913 3.63214 12.1174 4.75736 13.2426C5.88258 14.3679 7.4087 15 9 15ZM9 7.9395L11.121 5.81775L12.1823 6.879L10.0605 9L12.1823 11.121L11.121 12.1823L9 10.0605L6.879 12.1823L5.81775 11.121L7.9395 9L5.81775 6.879L6.879 5.81775L9 7.9395Z" fill="#F54814"/>
</g>
<defs>
<clipPath id="clip0_2462_1233">
<rect width="18" height="18" fill="white"/>
</clipPath>
</defs>
</svg>
