<svg width="18" height="18" viewBox="0 0 18 18" fill="none" xmlns="http://www.w3.org/2000/svg">
    <path d="M11.121 5.81767L6.87897 10.0604C6.80734 10.1296 6.7502 10.2124 6.7109 10.3039C6.67159 10.3954 6.6509 10.4938 6.65003 10.5934C6.64917 10.6929 6.66814 10.7917 6.70585 10.8839C6.74357 10.9761 6.79926 11.0598 6.86967 11.1302C6.94009 11.2006 7.02383 11.2563 7.11601 11.294C7.20818 11.3317 7.30694 11.3507 7.40652 11.3499C7.50611 11.349 7.60452 11.3283 7.69602 11.289C7.78753 11.2497 7.87029 11.1925 7.93947 11.1209L12.1822 6.87892C12.6042 6.45692 12.8413 5.88458 12.8413 5.28779C12.8413 4.691 12.6042 4.11866 12.1822 3.69667C11.7602 3.27467 11.1879 3.0376 10.5911 3.0376C9.99431 3.0376 9.42196 3.27467 8.99997 3.69667L4.75722 7.93942C4.40178 8.28601 4.11869 8.69974 3.92439 9.15659C3.73009 9.61344 3.62843 10.1043 3.62532 10.6008C3.62221 11.0972 3.71771 11.5893 3.90627 12.0486C4.09483 12.5078 4.37271 12.9251 4.72378 13.2761C5.07485 13.6271 5.49213 13.905 5.95141 14.0934C6.41069 14.2819 6.90283 14.3774 7.39927 14.3742C7.89572 14.371 8.38659 14.2693 8.84342 14.0749C9.30024 13.8806 9.71393 13.5974 10.0605 13.2419L14.3032 8.99992L15.3637 10.0604L11.121 14.3032C10.6334 14.7907 10.0547 15.1774 9.41766 15.4413C8.78067 15.7051 8.09795 15.8409 7.40847 15.8409C6.719 15.8409 6.03627 15.7051 5.39928 15.4413C4.76229 15.1774 4.1835 14.7907 3.69597 14.3032C3.20844 13.8156 2.82171 13.2368 2.55786 12.5999C2.29401 11.9629 2.1582 11.2801 2.1582 10.5907C2.1582 9.90119 2.29401 9.21847 2.55786 8.58148C2.82171 7.94448 3.20844 7.3657 3.69597 6.87817L7.93947 2.63617C8.64673 1.95307 9.59399 1.57509 10.5772 1.58364C11.5605 1.59218 12.501 1.98657 13.1963 2.68185C13.8916 3.37713 14.286 4.31767 14.2945 5.30091C14.303 6.28415 13.9251 7.23141 13.242 7.93867L8.99997 12.1829C8.79097 12.3919 8.54286 12.5576 8.26981 12.6707C7.99676 12.7837 7.70411 12.8419 7.40858 12.8419C7.11305 12.8418 6.82041 12.7836 6.54739 12.6705C6.27436 12.5573 6.0263 12.3915 5.81735 12.1825C5.6084 11.9735 5.44266 11.7254 5.32959 11.4524C5.21653 11.1793 5.15836 10.8867 5.15839 10.5912C5.15843 10.2956 5.21667 10.003 5.3298 9.72996C5.44293 9.45693 5.60872 9.20887 5.81772 8.99992L10.0605 4.75717L11.121 5.81767Z"
          fill="#656D85"/>
</svg>
