<svg width="24" height="24" viewBox="0 0 24 24" fill="none" xmlns="http://www.w3.org/2000/svg">
<path d="M16.7729 14.6522L15.7124 13.5902L16.7729 12.5297C17.1237 12.182 17.4023 11.7685 17.5928 11.3129C17.7832 10.8572 17.8818 10.3685 17.8829 9.87465C17.884 9.38081 17.7875 8.89162 17.5991 8.43517C17.4106 7.97871 17.1338 7.56398 16.7846 7.21479C16.4354 6.86559 16.0207 6.5888 15.5642 6.40032C15.1077 6.21183 14.6186 6.11536 14.1247 6.11645C13.6309 6.11753 13.1421 6.21614 12.6865 6.40662C12.2309 6.5971 11.8174 6.8757 11.4697 7.22642L10.4092 8.28767L9.34795 7.22717L10.4099 6.16667C11.3946 5.18206 12.73 4.62891 14.1224 4.62891C15.5149 4.62891 16.8503 5.18206 17.8349 6.16667C18.8196 7.15129 19.3727 8.48672 19.3727 9.87917C19.3727 11.2716 18.8196 12.6071 17.8349 13.5917L16.7737 14.6522H16.7729ZM14.6519 16.7732L13.5907 17.8337C12.6061 18.8183 11.2707 19.3714 9.8782 19.3714C8.48574 19.3714 7.15031 18.8183 6.1657 17.8337C5.18108 16.8491 4.62793 15.5136 4.62793 14.1212C4.62793 12.7287 5.18108 11.3933 6.1657 10.4087L7.22695 9.34817L8.28745 10.4102L7.22695 11.4707C6.87622 11.8183 6.59763 12.2319 6.40714 12.6875C6.21666 13.1431 6.11805 13.6319 6.11697 14.1257C6.11589 14.6195 6.21236 15.1087 6.40084 15.5652C6.58933 16.0216 6.86611 16.4364 7.21531 16.7856C7.56451 17.1348 7.97924 17.4115 8.43569 17.6C8.89215 17.7885 9.38133 17.885 9.87517 17.8839C10.369 17.8828 10.8578 17.7842 11.3134 17.5937C11.769 17.4032 12.1825 17.1246 12.5302 16.7739L13.5907 15.7134L14.6519 16.7739V16.7732ZM14.1209 8.81792L15.1822 9.87917L9.87895 15.1817L8.8177 14.1212L14.1209 8.81867V8.81792Z" fill="#21A35D"/>
</svg>
