<svg width="24" height="24" viewBox="0 0 24 24" fill="none" xmlns="http://www.w3.org/2000/svg">
<path d="M17.5876 6.59722C16.5402 6.1182 15.4279 5.76908 14.2669 5.57422C14.1207 5.82591 13.9583 6.16691 13.8447 6.43484C12.6098 6.25622 11.3838 6.25622 10.1659 6.43484C10.0523 6.16691 9.88174 5.82591 9.74371 5.57422C8.57458 5.76908 7.46227 6.1182 6.42221 6.59722C4.31937 9.69871 3.75104 12.7271 4.0352 15.7149C5.43169 16.7298 6.77947 17.3469 8.10369 17.7529C8.42845 17.3144 8.72075 16.8435 8.97244 16.3482C8.49341 16.1696 8.03874 15.9504 7.60031 15.6906C7.71398 15.6094 7.82765 15.5201 7.9332 15.4308C10.58 16.6405 13.4469 16.6405 16.0612 15.4308C16.1749 15.5201 16.2804 15.6094 16.3941 15.6906C15.9556 15.9504 15.501 16.1696 15.0219 16.3482C15.2737 16.8435 15.566 17.3144 15.8907 17.7529C17.2141 17.3469 18.57 16.7298 19.9592 15.7149C20.3083 12.2562 19.4063 9.25219 17.5876 6.59722ZM9.33779 13.8719C8.54211 13.8719 7.89258 13.1493 7.89258 12.2644C7.89258 11.3794 8.52587 10.6568 9.33779 10.6568C10.1416 10.6568 10.7992 11.3794 10.783 12.2644C10.783 13.1493 10.1416 13.8719 9.33779 13.8719ZM14.6729 13.8719C13.8772 13.8719 13.2268 13.1493 13.2268 12.2644C13.2268 11.3794 13.8609 10.6568 14.6729 10.6568C15.4766 10.6568 16.1343 11.3794 16.118 12.2644C16.118 13.1493 15.4848 13.8719 14.6729 13.8719Z" fill="#656D85"/>
</svg>
