<svg width="24" height="24" viewBox="0 0 24 24" fill="none" xmlns="http://www.w3.org/2000/svg">
<path d="M12 4.5C7.85625 4.5 4.5 7.85625 4.5 12C4.49915 13.5745 4.99411 15.1092 5.91466 16.3865C6.83521 17.6638 8.13461 18.6188 9.6285 19.116C10.0035 19.1813 10.1438 18.9562 10.1438 18.759C10.1438 18.5812 10.134 17.991 10.134 17.3625C8.25 17.7098 7.7625 16.9035 7.6125 16.4813C7.52775 16.2653 7.1625 15.6 6.84375 15.4215C6.58125 15.2812 6.20625 14.934 6.834 14.925C7.425 14.9152 7.8465 15.4687 7.9875 15.6937C8.6625 16.8277 9.741 16.509 10.1715 16.3125C10.2375 15.825 10.434 15.4972 10.65 15.3097C8.98125 15.1222 7.2375 14.475 7.2375 11.6063C7.2375 10.7903 7.52775 10.116 8.00625 9.59025C7.93125 9.40275 7.66875 8.634 8.08125 7.60275C8.08125 7.60275 8.709 7.40625 10.1438 8.37225C10.7543 8.2028 11.3851 8.11751 12.0188 8.11875C12.6563 8.11875 13.2938 8.20275 13.8938 8.3715C15.3278 7.3965 15.9563 7.6035 15.9563 7.6035C16.3688 8.63475 16.1063 9.4035 16.0313 9.591C16.509 10.116 16.8 10.7813 16.8 11.6063C16.8 14.4848 15.0473 15.1222 13.3785 15.3097C13.65 15.5437 13.8848 15.9938 13.8848 16.6973C13.8848 17.7 13.875 18.5063 13.875 18.7598C13.875 18.9563 14.016 19.1902 14.391 19.1152C15.8798 18.6126 17.1734 17.6557 18.0899 16.3794C19.0064 15.103 19.4996 13.5713 19.5 12C19.5 7.85625 16.1438 4.5 12 4.5Z" fill="#656D85"/>
</svg>
