<svg width="378" height="116" viewBox="0 0 378 116" fill="none" xmlns="http://www.w3.org/2000/svg">
<rect x="1" y="1" width="376" height="114" rx="12" fill="white"/>
<g clip-path="url(#clip0_4259_27221)">
<path d="M40 47C48.2843 47 55 40.2843 55 32C55 23.7157 48.2843 17 40 17C31.7157 17 25 23.7157 25 32C25 40.2843 31.7157 47 40 47Z" fill="#232323"/>
<path d="M49.1141 30.6915C48.3058 30.6926 47.5051 30.5343 46.758 30.2258C46.0109 29.9172 45.332 29.4643 44.76 28.8932C44.188 28.322 43.7343 27.6436 43.4247 26.8969C43.1151 26.1502 42.9558 25.3498 42.9558 24.5415H41.8891C41.8891 25.4165 41.7058 26.2665 41.3474 27.0498C40.6282 26.2038 39.7985 25.4583 38.8808 24.8332C37.2141 23.7415 35.6808 23.4915 34.5558 24.1415C33.9319 24.5274 33.472 25.1296 33.2641 25.8332C32.4558 25.8832 31.7891 26.1582 31.3058 26.6415C30.3891 27.5582 30.2224 29.1082 30.8558 30.9998C31.626 33.081 32.8567 34.9612 34.4558 36.4998C36.1724 38.2082 38.1224 39.4832 39.9558 40.0915C40.6224 40.3332 41.3308 40.4582 42.0391 40.4748C42.9891 40.4748 43.7558 40.1998 44.3058 39.6498L44.3391 39.6165L44.3308 39.6082C45.0558 38.8332 45.4058 37.5832 45.3058 35.9748C45.2558 35.1832 45.1058 34.3415 44.8641 33.4748C46.0094 32.3816 47.5308 31.77 49.1141 31.7665V30.6915ZM34.8224 24.6082C35.7641 24.0748 37.0974 24.3082 38.5724 25.2915C39.4474 25.8665 40.2974 26.6415 41.0808 27.5832C40.8224 28.0415 40.4974 28.4748 40.1224 28.8582C38.8156 27.6988 37.2996 26.7994 35.6558 26.2082C35.0724 25.9998 34.4558 25.8748 33.8391 25.8415C34.0138 25.3287 34.3614 24.8927 34.8224 24.6082ZM34.8474 36.1082C33.308 34.6329 32.1203 32.83 31.3724 30.8332C30.8058 29.1498 30.9224 27.7998 31.6891 27.0332C32.0391 26.6748 32.5224 26.4582 33.1058 26.3915C32.9881 26.9951 32.9517 27.6116 32.9974 28.2248C33.2042 30.4366 33.9078 32.5731 35.0558 34.4748C36.09 36.3372 37.5106 37.9568 39.2224 39.2248C37.7474 38.5582 36.2224 37.4748 34.8474 36.1082ZM43.4808 39.5915C42.5391 40.1332 41.2058 39.8915 39.7308 38.9082C37.9952 37.6703 36.5599 36.0584 35.5308 34.1915C34.3641 32.1665 33.6558 30.0332 33.5391 28.1915C33.4891 27.5832 33.5391 26.9665 33.6724 26.3582C34.292 26.3841 34.9043 26.502 35.4891 26.7082C36.8808 27.1665 38.3474 28.0415 39.7224 29.2165C38.6076 30.1694 37.189 30.6925 35.7224 30.6915V31.7665C37.3565 31.7665 38.9237 32.4151 40.08 33.5697C41.2362 34.7244 41.8869 36.2908 41.8891 37.9248H42.9558C42.9579 36.4653 43.4776 35.0539 44.4224 33.9415C44.6058 34.6582 44.7224 35.3415 44.7558 35.9998C44.8808 37.7748 44.4224 39.0498 43.4808 39.5832V39.5915Z" fill="white"/>
<path d="M40 47C43.9782 47 47.7936 45.4196 50.6066 42.6066C53.4196 39.7936 55 35.9782 55 32C55 28.0218 53.4196 24.2064 50.6066 21.3934C47.7936 18.5804 43.9782 17 40 17C36.0218 17 32.2064 18.5804 29.3934 21.3934C26.5804 24.2064 25 28.0218 25 32C25 35.9782 26.5804 39.7936 29.3934 42.6066C32.2064 45.4196 36.0218 47 40 47Z" fill="#232323"/>
<path d="M48.0859 37.3083C47.9276 34.75 46.9526 31.7916 45.3359 28.9833C43.7193 26.1833 41.6526 23.8666 39.5026 22.45C37.2859 20.9833 35.2359 20.6583 33.7359 21.525C32.9034 22.0368 32.2891 22.8381 32.0109 23.775C31.0348 23.8002 30.1026 24.1862 29.3943 24.8583C28.1693 26.0916 27.9526 28.1583 28.7943 30.675C29.6109 33.1083 31.3193 35.7166 33.6026 38.0083C35.8943 40.2916 38.4943 42 40.9359 42.8083C41.8276 43.125 42.7693 43.3 43.7276 43.3166C44.9943 43.3166 46.0109 42.95 46.7443 42.2166L46.7859 42.175L46.7776 42.1666C47.7526 41.1333 48.2109 39.4583 48.0859 37.3083ZM45.6443 42.1416C44.3943 42.8583 42.6109 42.5416 40.6359 41.2333C38.5859 39.8833 36.5943 37.65 35.0276 34.9416C33.4693 32.2333 32.5276 29.3916 32.3776 26.9416C32.3193 26.1166 32.3776 25.2916 32.5526 24.4916C33.3859 24.525 34.1943 24.6833 34.9693 24.9583C37.3026 25.7333 39.8109 27.375 42.0193 29.5833C42.4193 29.9916 42.8109 30.4083 43.1693 30.8333L43.2109 30.875L43.7609 30.4083L43.7109 30.3583C43.3359 29.9166 42.9359 29.4916 42.5193 29.075C40.2359 26.7916 37.6359 25.075 35.1943 24.2666C34.4113 23.9958 33.5958 23.8305 32.7693 23.775C33.0115 23.0998 33.4757 22.5269 34.0859 22.15C35.3359 21.425 37.1193 21.75 39.0943 23.05C41.1443 24.4083 43.1359 26.6416 44.7026 29.35C46.2609 32.0583 47.2026 34.9 47.3526 37.35C47.5026 39.7166 46.8943 41.4166 45.6443 42.1416ZM31.6526 26.975C31.8109 29.5416 32.7859 32.5 34.4026 35.3C35.782 37.7932 37.6802 39.9615 39.9693 41.6583C37.7854 40.6311 35.8039 39.2198 34.1193 37.4916C31.9026 35.2833 30.2609 32.7833 29.4859 30.45C28.7359 28.2 28.8859 26.4 29.9026 25.3833C30.4205 24.8904 31.0904 24.5878 31.8026 24.525C31.6443 25.3333 31.5943 26.1583 31.6526 26.9833V26.975Z" fill="white"/>
<path d="M44.9424 22.0581H43.5174C43.5108 24.2345 42.6428 26.3197 41.103 27.8579C39.5633 29.3961 37.4772 30.262 35.3008 30.2664V31.6998C37.4786 31.7042 39.566 32.5713 41.106 34.1112C42.6459 35.6512 43.513 37.7386 43.5174 39.9164H44.9424C44.9469 37.7386 45.8139 35.6512 47.3539 34.1112C48.8939 32.5713 50.9813 31.7042 53.1591 31.6998V30.2664C50.982 30.2642 48.8946 29.399 47.3544 27.8603C45.8142 26.3217 44.9469 24.2352 44.9424 22.0581Z" fill="white"/>
</g>
<path d="M176.66 25.501C172.681 25.501 170.316 28.329 170.316 31.763C170.316 35.196 172.681 38.025 176.66 38.025C180.64 38.025 183 35.215 183 31.763C183 28.31 180.636 25.5 176.66 25.5V25.501ZM176.66 36.531C173.812 36.531 172.033 34.471 172.033 31.763C172.033 29.055 173.812 26.995 176.66 26.995C179.508 26.995 181.284 29.078 181.284 31.763C181.284 34.447 179.505 36.53 176.66 36.53V36.531ZM120.424 26.995C122.644 26.995 124.221 28.532 124.322 30.128H125.98C125.878 27.803 123.858 25.5 120.506 25.5C116.445 25.5 114.143 28.348 114.143 31.781C114.143 35.156 116.323 38.024 120.607 38.024C123.171 38.024 125.051 36.85 125.98 35.699L124.888 34.718C124.329 35.2875 123.663 35.7412 122.929 36.0531C122.195 36.3651 121.406 36.5292 120.608 36.536C117.396 36.536 115.878 34.433 115.878 31.788C115.878 28.96 117.638 27.001 120.424 27.001M138.863 25.906V30.975C138.863 34.591 136.702 36.534 134.285 36.534C132.287 36.534 131.195 35.098 131.195 32.694V25.907H127.272V27.32H129.534V33.098C129.534 35.965 131.169 38.026 134.158 38.026C136.483 38.026 138.056 36.832 138.844 35.135V37.62H140.502V25.906H138.863ZM168.242 25.906L163.991 35.945L159.649 25.906H156.409V27.32H158.469L163.092 38.045C162.405 39.723 161.297 40.753 159.904 40.753C159.429 40.7741 158.957 40.6761 158.53 40.468V41.982C159.048 42.1698 159.596 42.2596 160.146 42.247C162.144 42.247 163.517 41.073 164.465 38.892L170.024 25.906H168.242ZM148.283 28.025V25.907H143.313V27.319H146.625V36.207H143.312V37.619H152.322V36.207H148.282V30.713C148.61 28.793 150.3 27.018 152.383 27.018C153.121 26.9902 153.857 27.1208 154.541 27.401V25.907C153.985 25.6255 153.369 25.4857 152.746 25.5C151.848 25.5024 150.966 25.7358 150.184 26.1778C149.402 26.6199 148.748 27.2557 148.283 28.024V28.025ZM106.71 28.025V25.906H101.736V27.32H105.049V36.208H101.736V37.62H110.745V36.208H106.71V30.713C107.014 28.793 108.73 27.018 110.83 27.018C111.563 26.9919 112.293 27.1225 112.972 27.401V25.906C112.408 25.6256 111.784 25.4866 111.154 25.501C110.26 25.511 109.383 25.7478 108.606 26.1893C107.829 26.6307 107.176 27.2624 106.71 28.025ZM84.045 36.207V30.27C84.045 27.585 82.328 25.502 79.745 25.502C77.162 25.502 75.926 27.137 75.341 28.445C75.0686 27.5808 74.5247 26.8275 73.79 26.2971C73.0553 25.7667 72.169 25.4875 71.263 25.501C68.974 25.501 67.768 26.836 67.12 28.05V25.907H63V27.32H65.466V37.62H67.12V30.733C67.284 29.38 68.428 27.02 70.96 27.02C72.798 27.02 73.942 28.05 73.942 30.754V37.621H75.597V30.67C75.819 29.362 76.905 27.018 79.416 27.018C81.273 27.018 82.386 28.048 82.386 30.752V37.619H85.92V36.206H84.046L84.045 36.207ZM99.774 31.763C99.774 28.31 97.51 25.5 93.614 25.5C89.716 25.5 87.371 28.348 87.371 31.781C87.371 35.297 89.634 38.024 93.836 38.024C96.452 38.024 98.319 36.752 99.068 35.761L97.978 34.78C96.968 35.872 95.575 36.52 93.728 36.52C91.112 36.52 89.343 34.78 89.15 32.298H99.75C99.7669 32.1199 99.7746 31.941 99.773 31.762L99.774 31.763ZM89.17 30.893C89.496 28.604 91.21 26.995 93.613 26.995C94.7094 26.9559 95.7791 27.3381 96.6026 28.063C97.4261 28.7879 97.9408 29.8005 98.041 30.893H89.17Z" fill="black"/>
<path d="M25 59H353" stroke="black" stroke-opacity="0.04"/>
<path d="M39.93 79.47L34.6 91.57H31.26L28.86 81.91C28.71 81.32 28.58 81.11 28.12 80.85C27.36 80.45 26.11 80.06 25 79.82L25.08 79.47H30.48C31.18 79.47 31.78 79.92 31.93 80.71L33.17 87.71L36.59 79.47H39.93ZM52.96 87.61C53.02 84.42 48.53 84.25 48.58 82.82C48.6 82.39 49.02 81.92 49.94 81.81C50.4 81.75 51.65 81.71 53.07 82.35L53.66 79.79C52.7128 79.4373 51.7108 79.2545 50.7 79.25C47.56 79.25 45.32 80.89 45.27 83.25C45.23 84.99 46.81 85.95 48.01 86.54C49.24 87.13 49.65 87.51 49.64 88.04C49.61 88.85 48.64 89.21 47.72 89.22C46.12 89.25 45.2 88.8 44.47 88.46L43.86 91.11C44.59 91.44 45.96 91.74 47.38 91.75C50.71 91.75 52.92 90.13 52.96 87.61ZM61.2 91.56H64.13L61.74 79.47H59.03C58.42 79.47 57.9 79.82 57.67 80.36L52.74 91.56H56.08L56.76 89.76H60.84L61.2 91.56ZM57.71 87.28L59.45 82.74L60.35 87.28H57.7H57.71ZM44.46 79.48L41.66 91.56H38.5L41.3 79.47H44.47L44.46 79.48Z" fill="#1434CB"/>
<path d="M87.6317 77.9199H79.7617V92.0799H87.6317V77.9199Z" fill="#FF5F00"/>
<path d="M80.2609 85C80.259 83.6361 80.5678 82.2897 81.1639 81.063C81.7599 79.8363 82.6275 78.7614 83.7009 77.92C82.3729 76.8778 80.7785 76.2301 79.0999 76.0509C77.4213 75.8717 75.7261 76.1682 74.208 76.9066C72.6899 77.6449 71.4101 78.7954 70.5147 80.2266C69.6193 81.6577 69.1445 83.3118 69.1445 85C69.1445 86.6882 69.6193 88.3423 70.5147 89.7734C71.4101 91.2046 72.6899 92.3551 74.208 93.0934C75.7261 93.8318 77.4213 94.1284 79.0999 93.9492C80.7785 93.7699 82.3729 93.1222 83.7009 92.08C82.6275 91.2386 81.7599 90.1637 81.1639 88.937C80.5678 87.7103 80.259 86.3639 80.2609 85Z" fill="#EB001B"/>
<path d="M98.2592 84.9999C98.2598 86.6887 97.7851 88.3436 96.8896 89.7753C95.994 91.2071 94.7137 92.358 93.195 93.0966C91.6762 93.8351 89.9803 94.1314 88.3011 93.9516C86.6219 93.7718 85.0272 93.1232 83.6992 92.0799C84.7722 91.2379 85.6397 90.1629 86.2363 88.9364C86.8328 87.7099 87.1428 86.3638 87.1428 84.9999C87.1428 83.636 86.8328 82.2899 86.2363 81.0634C85.6397 79.8369 84.7722 78.762 83.6992 77.9199C85.0272 76.8766 86.6219 76.228 88.3011 76.0482C89.9803 75.8684 91.6762 76.1647 93.195 76.9033C94.7137 77.6418 95.994 78.7927 96.8896 80.2245C97.7851 81.6563 98.2598 83.3111 98.2592 84.9999ZM97.3992 90.5799V90.2799H97.5092V90.2299H97.2092V90.2899H97.3292V90.5799H97.3992ZM97.9792 90.5799V90.2299H97.8792L97.7792 90.4699L97.6792 90.2299H97.5792V90.5799H97.6492V90.3099L97.7492 90.5399H97.8092L97.9092 90.3099V90.5799H97.9792Z" fill="#F79E1B"/>
<path d="M108.902 76H116.102C117.102 76 117.712 76.8 117.472 77.82L114.142 92.18C114.01 92.6822 113.722 93.1294 113.32 93.4567C112.917 93.784 112.42 93.9743 111.902 94H104.702C103.692 94 103.082 93.2 103.322 92.18L106.682 77.82C106.872 76.8 107.902 76 108.902 76Z" fill="#ED171F"/>
<path d="M115.49 76H123.76C124.77 76 124.3 76.8 124.06 77.82L120.74 92.18C120.5 93.2 120.57 94 119.56 94H111.28C110.28 94 109.67 93.2 109.9 92.18L113.23 77.82C113.47 76.8 114.48 76 115.5 76H115.49Z" fill="#082F67"/>
<path d="M123.431 76H130.631C131.631 76 132.241 76.8 132.011 77.82L128.681 92.18C128.551 92.6861 128.26 93.1365 127.853 93.4644C127.446 93.7922 126.944 93.9801 126.421 94H119.221C118.221 94 117.611 93.2 117.841 92.18L121.171 77.82C121.411 76.8 122.421 76 123.431 76Z" fill="#006A65"/>
<path fill-rule="evenodd" clip-rule="evenodd" d="M122.22 89.5298H122.89L123.09 88.8898H122.42L122.22 89.5298ZM122.76 87.7098L122.52 88.4798C122.52 88.4798 122.79 88.3498 122.92 88.3198C123.06 88.2798 123.26 88.2498 123.26 88.2498L123.43 87.7098H122.76ZM123.09 86.5998L122.86 87.3398L123.26 87.1698C123.4 87.1398 123.6 87.1398 123.6 87.1398L123.77 86.5998H123.09ZM124.61 86.5998L123.73 89.4998H123.97L123.77 90.0998H123.53L123.46 90.2998H122.62L122.69 90.0998H121L121.17 89.5598H121.33L122.21 86.6298L122.38 86.0298H123.22L123.12 86.3298C123.12 86.3298 123.35 86.1598 123.55 86.0898C123.75 86.0298 125 86.0298 125 86.0298L124.83 86.6298H124.6V86.5998H124.61Z" fill="white"/>
<path d="M124.978 86.0298H125.878V86.3598C125.878 86.4298 125.918 86.4298 126.018 86.4298H126.188L126.018 86.9998H125.518C125.078 87.0398 124.938 86.8298 124.938 86.6298L124.978 86.0298ZM125.078 88.6898H124.198L124.338 88.1898H125.308L125.448 87.7398H124.468L124.638 87.1698H127.368L127.198 87.7398H126.288L126.148 88.1798H127.058L126.928 88.6798H125.948L125.778 88.8798H126.178L126.278 89.5298C126.278 89.5898 126.278 89.6298 126.318 89.6598C126.358 89.6998 126.458 89.6998 126.518 89.6998H126.658L126.458 90.2698H125.958C125.858 90.2698 125.778 90.1998 125.718 90.1698C125.678 90.1494 125.643 90.1212 125.613 90.0869C125.584 90.0525 125.562 90.0127 125.548 89.9698L125.448 89.3598L125.008 89.9598C124.878 90.1598 124.668 90.2998 124.338 90.2998H123.698L123.868 89.7598H124.098C124.168 89.7598 124.238 89.7298 124.268 89.6998C124.298 89.6598 124.368 89.6598 124.398 89.5998L125.078 88.6898ZM115.618 87.2998H117.908L117.738 87.8398H116.838L116.698 88.3098H117.638L117.468 88.8898H116.528L116.298 89.6598C116.258 89.7298 116.528 89.7598 116.598 89.7598L117.068 89.6898L116.868 90.3298H115.818C115.758 90.3298 115.688 90.3298 115.588 90.2998C115.488 90.2698 115.448 90.2298 115.418 90.1598C115.388 90.0998 115.318 90.0598 115.348 89.9298L115.648 88.9198H115.148L115.318 88.3498H115.858L115.988 87.8798H115.488L115.618 87.2998ZM117.138 86.3298H118.078L117.908 86.8998H116.628L116.498 87.0398C116.428 87.0998 116.428 87.0698 116.328 87.0998C116.258 87.1398 116.088 87.1998 115.888 87.1998H115.488L115.658 86.6698H115.788C115.888 86.6698 115.958 86.6698 115.988 86.6298C116.028 86.5998 116.088 86.5698 116.128 86.4598L116.358 86.0298H117.298L117.138 86.3298Z" fill="white"/>
<path fill-rule="evenodd" clip-rule="evenodd" d="M118.949 87.2698C118.949 87.2698 119.219 87.0398 119.659 86.9698C119.759 86.9398 120.399 86.9698 120.399 86.9698L120.499 86.6698H119.199L118.959 87.2698H118.949ZM120.199 87.5098H118.889L118.819 87.7798H119.959C120.099 87.7398 120.129 87.7798 120.129 87.7798L120.199 87.5098ZM118.479 86.0298H119.289L119.189 86.4298C119.189 86.4298 119.429 86.2298 119.629 86.1598C119.799 86.0898 120.199 86.0298 120.199 86.0298H121.479L121.039 87.5098C120.969 87.7398 120.869 87.9098 120.839 88.0098C120.799 88.0798 120.739 88.1498 120.599 88.2098C120.499 88.2798 120.399 88.3098 120.299 88.3098H118.649L118.309 89.4898C118.279 89.5898 118.279 89.6598 118.279 89.6898C118.309 89.7298 118.349 89.7598 118.419 89.7598L118.949 89.6898L118.749 90.3298H117.709C117.609 90.3298 117.509 90.3298 117.439 90.2698C117.369 90.1998 117.309 90.1698 117.309 90.0998C117.309 90.0298 117.339 89.9298 117.369 89.7998L118.479 86.0298Z" fill="white"/>
<path d="M120.839 88.3798L120.769 88.7198C120.739 88.8198 120.699 88.9198 120.639 88.9898C120.539 89.0598 120.439 89.1198 120.199 89.1198L119.729 89.1898V89.5898C119.729 89.6898 119.759 89.6898 119.759 89.7298C119.799 89.7598 119.799 89.7598 119.829 89.7598H119.959L120.399 89.7298L120.229 90.2998H119.729C119.389 90.2998 119.129 90.2998 119.059 90.2298C118.989 90.1698 118.959 90.1298 118.959 89.9998L118.989 88.4498H119.759V88.7498H119.959C120.029 88.7498 120.059 88.7498 120.099 88.7198L120.169 88.6498L120.229 88.4198H120.829V88.3798H120.839ZM109.739 80.5798C109.699 80.6998 109.199 82.9998 109.199 82.9998C109.099 83.4698 109.029 83.7998 108.759 83.9998C108.619 84.1398 108.419 84.1798 108.219 84.1798C107.879 84.1798 107.719 84.0098 107.679 83.6998V83.5998L107.779 82.9598C107.779 82.9598 108.319 80.8798 108.379 80.5798V80.5398H107.179C107.179 80.5798 107.139 80.6798 107.139 80.6798L106.609 83.0298L106.569 83.2298L106.469 83.8698C106.469 84.0698 106.509 84.2098 106.569 84.3398C106.809 84.7798 107.509 84.8398 107.919 84.8398C108.419 84.8398 108.889 84.7398 109.229 84.5398C109.799 84.2098 109.929 83.6998 110.069 83.2398L110.139 82.9998C110.139 82.9998 110.679 80.8098 110.779 80.5398V80.5098C110.039 80.6098 109.799 80.6098 109.739 80.5798ZM112.729 84.9198H111.829V84.8798C111.849 84.7198 111.889 84.5798 111.929 84.4098L111.989 84.1798C112.059 83.8398 112.159 83.4398 112.159 83.2998C112.159 83.2298 112.189 83.0298 111.989 83.0298C111.889 83.0298 111.819 83.0698 111.719 83.1298C111.649 83.2998 111.549 83.8398 111.519 84.0798C111.419 84.5798 111.419 84.6098 111.349 84.8498L111.319 84.8798H110.369L110.339 84.8498L110.539 83.9798C110.709 83.1698 110.779 82.8598 110.809 82.4898L110.849 82.4598C111.249 82.3898 111.349 82.3898 111.819 82.2898L111.849 82.3298L111.789 82.5598C111.849 82.5298 111.919 82.4598 112.019 82.4298C112.219 82.3298 112.459 82.2898 112.599 82.2898C112.799 82.2898 112.999 82.3598 113.099 82.5598C113.199 82.7598 113.129 83.0298 113.029 83.4998L112.969 83.7398C112.869 84.2798 112.829 84.3798 112.769 84.7798L112.729 84.9198ZM114.179 84.9198H113.679C113.539 84.9198 113.399 84.9198 113.199 84.9498V84.8798C113.269 84.6798 113.299 84.6098 113.299 84.5098C113.356 84.394 113.39 84.2684 113.399 84.1398C113.469 83.8698 113.499 83.6698 113.539 83.4998L113.599 83.0298H113.669C113.869 82.9998 114.039 82.9598 114.169 82.9598C114.309 82.9298 114.449 82.9298 114.679 82.8598V82.9298C114.649 83.0998 114.579 83.2698 114.549 83.4298C114.509 83.5998 114.479 83.7698 114.409 83.9398L114.279 84.5398C114.239 84.6398 114.239 84.6798 114.209 84.8798L114.179 84.9198ZM116.499 83.6398C116.459 83.7398 116.399 84.0698 116.299 84.2398C116.229 84.3398 116.129 84.4098 116.029 84.4098C115.989 84.4098 115.829 84.4098 115.829 84.1398C115.829 84.0098 115.859 83.8698 115.889 83.7398C115.989 83.2998 116.089 82.9598 116.389 82.9598C116.569 82.9298 116.589 83.1998 116.489 83.6398H116.499ZM117.439 83.6698C117.579 83.0998 117.469 82.8698 117.339 82.6898C117.139 82.4598 116.839 82.3898 116.459 82.3898C116.259 82.3898 115.759 82.4198 115.389 82.7598C115.119 83.0298 114.989 83.3598 114.919 83.6998C114.849 84.0398 114.749 84.6398 115.319 84.8798C115.489 84.9498 115.759 84.9798 115.889 84.9798C116.289 84.9798 116.729 84.8798 117.039 84.5398C117.269 84.2398 117.409 83.8398 117.439 83.6698ZM126.289 84.9498H125.309L125.279 84.9098C125.379 84.5098 125.509 84.0698 125.579 83.6698C125.719 83.1298 125.749 82.8998 125.779 82.5898L125.819 82.5598C126.249 82.4898 126.359 82.4898 126.819 82.3898V82.4198C126.759 82.7598 126.659 83.0998 126.589 83.4298C126.419 84.1398 126.359 84.5098 126.289 84.8798V84.9498Z" fill="white"/>
<path d="M125.619 83.6701C125.579 83.7701 125.519 84.1101 125.419 84.2401C125.349 84.3401 125.179 84.4101 125.079 84.4101C125.039 84.4101 124.879 84.4101 124.879 84.1401C124.879 84.0101 124.909 83.8701 124.939 83.7401C125.039 83.3401 125.139 82.9601 125.439 82.9601C125.619 83.0001 125.719 83.2601 125.619 83.6701ZM126.489 83.7001C126.629 83.1701 126.119 83.6701 126.019 83.4701C125.889 83.2001 125.989 82.5901 125.479 82.4301C125.279 82.3601 124.839 82.4601 124.439 82.8001C124.169 83.0701 124.039 83.4001 123.969 83.7401C123.899 84.0701 123.799 84.6801 124.369 84.9201C124.539 84.9801 124.709 85.0201 124.869 85.0201C125.449 84.9801 125.889 84.1401 126.189 83.8101C126.389 83.5101 126.459 83.8701 126.489 83.7101V83.7001ZM119.899 84.9201H118.989V84.8801L119.089 84.4101L119.159 84.1801C119.219 83.8401 119.319 83.4401 119.319 83.3001C119.319 83.2301 119.359 83.0301 119.159 83.0301C119.059 83.0301 118.989 83.0701 118.889 83.1301C118.849 83.3001 118.719 83.8401 118.689 84.0801C118.589 84.5801 118.589 84.6101 118.519 84.8501L118.479 84.8801H117.539L117.509 84.8501L117.709 83.9801C117.879 83.1701 117.939 82.8601 117.979 82.4901L118.009 82.4601C118.409 82.3901 118.509 82.3901 118.989 82.2901L119.049 82.3901L118.989 82.6301C119.049 82.6001 119.119 82.5301 119.219 82.4901C119.419 82.3901 119.659 82.3601 119.789 82.3601C119.989 82.3601 120.189 82.4301 120.289 82.6301C120.399 82.8301 120.329 83.1001 120.189 83.5701L120.129 83.8101C119.999 84.3501 119.999 84.4501 119.929 84.8501L119.899 84.9201ZM123.029 80.5801H121.499C121.499 80.6401 121.469 80.7401 121.469 80.7401L121.199 82.0601L120.499 84.9501H121.569L121.769 84.0501L121.909 83.4701C121.909 83.4701 121.939 83.4001 122.009 83.4001H122.069C122.649 83.4001 123.319 83.4001 123.859 83.0301C124.229 82.7601 124.459 82.3901 124.559 81.9301C124.599 81.8301 124.599 81.6501 124.599 81.5201C124.604 81.3431 124.555 81.1689 124.459 81.0201C124.159 80.6101 123.659 80.5801 123.019 80.5801H123.029ZM123.429 81.9201C123.359 82.2201 123.189 82.4601 122.929 82.5601C122.729 82.6601 122.489 82.6601 122.219 82.6601H122.079V82.5901L122.379 81.3201V81.1801H122.519L123.159 81.2501C123.399 81.3801 123.499 81.6201 123.429 81.9201ZM129.849 82.4001L129.819 82.3601C129.379 82.4601 129.279 82.4601 128.879 82.5301L128.849 82.5601V82.5901C128.549 83.3001 128.549 83.1301 128.309 83.7101V83.6401L128.239 82.3901L128.209 82.3601C127.729 82.4601 127.729 82.4601 127.299 82.5301L127.259 82.5601V82.5901C127.329 82.8601 127.299 82.7901 127.359 83.2301C127.399 83.4301 127.429 83.6701 127.429 83.8701C127.459 84.2101 127.499 84.4101 127.569 84.9501C127.269 85.4201 127.199 85.6201 126.929 86.0301V86.0601H127.769L127.829 85.9901C128.029 85.4901 129.849 82.3901 129.849 82.3901V82.4001ZM114.579 82.7001C114.819 82.5301 114.849 82.3001 114.649 82.2001C114.449 82.0601 114.069 82.1201 113.839 82.3001C113.599 82.4601 113.569 82.7001 113.769 82.8001C113.969 82.9001 114.339 82.8601 114.579 82.7001Z" fill="white"/>
<path d="M127.769 86.0298L127.429 86.6298C127.329 86.8298 127.129 86.9998 126.789 86.9998H126.219L126.389 86.4598H126.489C126.559 86.4598 126.589 86.4598 126.629 86.4298C126.659 86.4298 126.659 86.3998 126.689 86.3598L126.889 86.0298H127.769Z" fill="white"/>
<path d="M163.999 76H140.309C140.048 76.0085 139.788 76.0252 139.529 76.05C139.175 76.1142 138.848 76.2812 138.589 76.53C138.334 76.781 138.165 77.1068 138.109 77.46C138.079 77.63 138.069 77.81 138.059 77.99V92C138.059 92.18 138.079 92.36 138.109 92.53C138.171 92.8815 138.338 93.2059 138.589 93.46C138.843 93.7157 139.172 93.8838 139.529 93.94C139.789 93.9852 140.054 94.002 140.319 93.99H164.299C164.559 93.9804 164.819 93.9637 165.079 93.94C165.432 93.8758 165.759 93.7089 166.019 93.46C166.277 93.2104 166.449 92.8845 166.509 92.53C166.554 92.276 166.571 92.0178 166.559 91.76V78.52V78.23V77.99C166.549 77.81 166.539 77.63 166.509 77.46C166.444 77.1074 166.273 76.7829 166.019 76.53C165.764 76.2744 165.435 76.1063 165.079 76.05C164.821 76.0054 164.56 75.9887 164.299 76H163.999Z" fill="#232323"/>
<path d="M164.002 76.5999H164.302C164.526 76.6069 164.749 76.6203 164.972 76.6399C165.207 76.6715 165.425 76.7781 165.595 76.9439C165.764 77.1097 165.875 77.3257 165.912 77.5599C165.951 77.7809 165.964 78.0057 165.952 78.2299V91.7699C165.951 91.9938 165.938 92.2175 165.912 92.4399C165.869 92.668 165.758 92.8775 165.592 93.0399C165.512 93.1299 165.422 93.1999 165.312 93.2399C165.212 93.2999 165.112 93.3399 164.972 93.3599C164.747 93.3978 164.519 93.4112 164.292 93.3999H140.322C140.095 93.3927 139.868 93.3793 139.642 93.3599C139.407 93.3283 139.189 93.2216 139.019 93.0558C138.85 92.8901 138.739 92.674 138.702 92.4399L138.672 91.9999V78.2299C138.681 78.0063 138.694 77.7829 138.712 77.5599C138.754 77.3338 138.862 77.1251 139.022 76.9599C139.188 76.7888 139.406 76.6764 139.642 76.6399C139.866 76.6014 140.094 76.588 140.322 76.5999H164.012H164.002Z" fill="white"/>
<path d="M145.931 82.0499C146.171 81.7499 146.331 81.3499 146.291 80.9399C145.898 80.9802 145.536 81.1677 145.276 81.4645C145.016 81.7614 144.879 82.1457 144.891 82.5399C145.291 82.5799 145.691 82.3399 145.931 82.0499ZM146.301 82.6199C145.721 82.5899 145.231 82.9499 144.951 82.9499C144.681 82.9499 144.251 82.6399 143.811 82.6499C143.211 82.6499 142.671 82.9899 142.361 83.5199C141.751 84.5899 142.201 86.1699 142.801 87.0299C143.101 87.4599 143.441 87.9299 143.901 87.9199C144.341 87.8999 144.521 87.6299 145.051 87.6299C145.581 87.6299 145.731 87.9199 146.201 87.9099C146.681 87.8999 146.981 87.4799 147.271 87.0499C147.601 86.5599 147.741 86.0899 147.751 86.0599C147.741 86.0599 146.821 85.6999 146.811 84.6499C146.811 83.7599 147.531 83.3499 147.571 83.3199C147.426 83.1124 147.235 82.9412 147.013 82.8198C146.791 82.6983 146.544 82.6299 146.291 82.6199H146.301ZM151.301 81.4299C152.541 81.4299 153.411 82.2899 153.411 83.5399C153.411 84.7999 152.531 85.6599 151.261 85.6599H149.881V87.8599H148.881V81.4299H151.301ZM149.881 84.8299H151.031C151.901 84.8299 152.391 84.3599 152.391 83.5499C152.391 82.7299 151.891 82.2699 151.031 82.2699H149.881V84.8199V84.8299ZM153.671 86.5299C153.671 85.7099 154.301 85.1999 155.421 85.1399L156.701 85.0699V84.6999C156.701 84.1799 156.351 83.8699 155.761 83.8699C155.201 83.8699 154.861 84.1399 154.761 84.5599H153.861C153.911 83.7099 154.631 83.0899 155.791 83.0899C156.931 83.0899 157.661 83.6899 157.661 84.6299V87.8599H156.741V87.0899H156.711C156.441 87.6099 155.851 87.9399 155.231 87.9399C154.311 87.9399 153.671 87.3699 153.671 86.5299ZM156.701 86.0999V85.7299L155.541 85.8099C154.971 85.8499 154.641 86.0999 154.641 86.5099C154.641 86.9099 154.981 87.1799 155.501 87.1799C156.171 87.1799 156.701 86.7199 156.701 86.0999ZM158.531 89.5899V88.8099L158.841 88.8199C159.291 88.8199 159.531 88.6399 159.681 88.1599L159.761 87.8599L158.061 83.1599H159.111L160.301 86.9999H160.311L161.501 83.1799H162.521L160.761 88.1199C160.361 89.2499 159.901 89.6199 158.921 89.6199L158.531 89.5999V89.5899Z" fill="#232323"/>
<path fill-rule="evenodd" clip-rule="evenodd" d="M198.498 76.0001H174.808C174.548 76.0091 174.288 76.0257 174.028 76.0501C173.675 76.1143 173.348 76.2813 173.088 76.5301C172.834 76.7811 172.665 77.1069 172.608 77.4601C172.563 77.7141 172.546 77.9724 172.558 78.2301V92.0101C172.558 92.1901 172.578 92.3701 172.608 92.5401C172.67 92.8916 172.838 93.216 173.088 93.4701C173.343 93.7258 173.672 93.8939 174.028 93.9501C174.289 93.9954 174.554 94.0121 174.818 94.0001H198.798C199.059 93.9914 199.319 93.9747 199.578 93.9501C199.932 93.8859 200.259 93.719 200.518 93.4701C200.777 93.2205 200.949 92.8945 201.008 92.5401C201.038 92.3701 201.048 92.1901 201.048 92.0101V91.7701V78.5201V78.2301V77.9901C201.048 77.8101 201.038 77.6301 201.008 77.4601C200.944 77.1074 200.773 76.783 200.518 76.5301C200.264 76.2744 199.935 76.1063 199.578 76.0501C199.321 76.0053 199.059 75.9886 198.798 76.0001H198.498Z" fill="#3C4043"/>
<path fill-rule="evenodd" clip-rule="evenodd" d="M198.502 76.6H198.802C199.026 76.6065 199.249 76.6198 199.472 76.64C199.602 76.66 199.712 76.7 199.822 76.74C199.979 76.8196 200.114 76.9356 200.217 77.0783C200.319 77.2209 200.386 77.3861 200.412 77.56C200.451 77.7811 200.464 78.0059 200.452 78.23V91.77C200.451 91.9906 200.438 92.2109 200.412 92.43C200.376 92.6641 200.268 92.8809 200.102 93.05C199.93 93.2121 199.715 93.3199 199.482 93.36C199.254 93.3988 199.023 93.4122 198.792 93.4H174.822C174.598 93.3922 174.375 93.3789 174.152 93.36C173.917 93.3284 173.699 93.2218 173.529 93.056C173.36 92.8902 173.249 92.6742 173.212 92.44C173.182 92.29 173.182 92.13 173.172 92V78.23C173.181 78.0064 173.194 77.7831 173.212 77.56C173.252 77.3303 173.36 77.1179 173.522 76.95C173.692 76.7806 173.914 76.6717 174.152 76.64C174.373 76.6022 174.598 76.5888 174.822 76.6H198.512H198.502Z" fill="#FFFFFE"/>
<path d="M186.198 85.4198V87.9798H185.398V81.6498H187.518C188.038 81.6398 188.528 81.8298 188.898 82.1998C189.618 82.8898 189.668 84.0398 188.988 84.7798L188.888 84.8798C188.708 85.0564 188.493 85.1952 188.258 85.2879C188.023 85.3806 187.771 85.4255 187.518 85.4198H186.198ZM186.198 82.4198V84.6398H187.538C187.838 84.6398 188.138 84.5298 188.338 84.3098C188.748 83.8698 188.738 83.1598 188.308 82.7398C188.108 82.5398 187.828 82.4298 187.538 82.4298H186.198V82.4198ZM191.318 83.4998C191.918 83.4998 192.378 83.6698 192.718 83.9898C193.068 84.2998 193.238 84.7498 193.238 85.3098V87.9798H192.468V87.3798H192.438C192.098 87.8798 191.668 88.1198 191.108 88.1198C190.676 88.1351 190.254 87.9849 189.928 87.6998C189.628 87.4298 189.448 87.0498 189.458 86.6398C189.458 86.1898 189.628 85.8398 189.958 85.5698C190.298 85.2998 190.738 85.1698 191.298 85.1698C191.778 85.1698 192.168 85.2598 192.478 85.4298V85.2398C192.478 85.1032 192.448 84.9683 192.391 84.8442C192.334 84.72 192.251 84.6094 192.148 84.5198C192.016 84.4036 191.859 84.3178 191.69 84.2685C191.521 84.2191 191.343 84.2074 191.168 84.234C190.994 84.2607 190.828 84.3252 190.681 84.4229C190.534 84.5206 190.41 84.6493 190.318 84.7998L189.608 84.3498C189.988 83.7898 190.558 83.5098 191.318 83.5098V83.4998ZM190.288 86.6498C190.288 86.8598 190.388 87.0598 190.548 87.1798C190.728 87.3198 190.948 87.3998 191.168 87.3898C191.508 87.3898 191.838 87.2598 192.068 87.0198C192.338 86.7598 192.468 86.4598 192.468 86.1198C192.218 85.9198 191.868 85.8198 191.428 85.8198C191.098 85.8198 190.828 85.8998 190.608 86.0598C190.509 86.1244 190.427 86.2133 190.371 86.3183C190.315 86.4233 190.286 86.5408 190.288 86.6598V86.6498Z" fill="#3C4043"/>
<path fill-rule="evenodd" clip-rule="evenodd" d="M197.639 83.6499L194.959 89.8799H194.139L195.139 87.6999L193.379 83.6499H194.249L195.519 86.7499H195.529L196.769 83.6499H197.639Z" fill="#3C4043"/>
<path fill-rule="evenodd" clip-rule="evenodd" d="M182.96 84.8601C182.96 84.6101 182.94 84.3601 182.9 84.1201H179.52V85.5201H181.46C181.38 85.9701 181.12 86.3701 180.74 86.6201V87.5401H181.89C182.245 87.1925 182.523 86.7745 182.707 86.313C182.892 85.8516 182.978 85.3567 182.96 84.8601Z" fill="#4285F4"/>
<path fill-rule="evenodd" clip-rule="evenodd" d="M179.519 88.41C180.391 88.4349 181.24 88.1234 181.889 87.54L180.739 86.63C180.461 86.8123 180.145 86.9277 179.815 86.9673C179.485 87.0069 179.151 86.9695 178.838 86.858C178.525 86.7466 178.242 86.5642 178.011 86.3251C177.781 86.086 177.609 85.7967 177.509 85.48H176.309V86.41C176.929 87.64 178.159 88.41 179.519 88.41Z" fill="#34A853"/>
<path fill-rule="evenodd" clip-rule="evenodd" d="M177.502 85.4799C177.351 85.0253 177.351 84.5345 177.502 84.0799V83.1499H176.322C176.069 83.6561 175.938 84.2141 175.938 84.7799C175.938 85.3457 176.069 85.9037 176.322 86.4099L177.512 85.4799H177.502Z" fill="#FBBC04"/>
<path fill-rule="evenodd" clip-rule="evenodd" d="M179.52 82.5798C180.03 82.5798 180.52 82.7698 180.89 83.1298L181.92 82.0898C181.275 81.4727 180.413 81.1319 179.52 81.1398C178.16 81.1398 176.92 81.9198 176.32 83.1398L177.51 84.0898C177.646 83.6609 177.913 83.2854 178.274 83.0163C178.635 82.7472 179.07 82.5981 179.52 82.5898V82.5798Z" fill="#EA4335"/>
<path d="M207.359 79.3198C207.359 78.6998 207.359 78.2498 207.389 77.8998C207.419 77.5598 207.479 77.3398 207.589 77.1598C207.729 76.8898 207.949 76.6698 208.219 76.5198C208.389 76.4198 208.619 76.3598 208.959 76.3298C209.309 76.2998 209.759 76.2998 210.379 76.2998H232.559C233.179 76.2998 233.619 76.2998 233.969 76.3298C234.319 76.3598 234.539 76.4298 234.719 76.5298C234.979 76.6698 235.199 76.8898 235.349 77.1598C235.449 77.3398 235.509 77.5598 235.549 77.8998C235.579 78.2498 235.579 78.6998 235.579 79.3198V90.6798C235.579 91.2998 235.579 91.7498 235.539 92.0998C235.509 92.4398 235.449 92.6598 235.349 92.8398C235.199 93.1098 234.979 93.3298 234.719 93.4798C234.539 93.5798 234.319 93.6398 233.969 93.6698C233.629 93.6998 233.169 93.6998 232.559 93.6998H210.379C209.749 93.6998 209.309 93.6998 208.959 93.6698C208.698 93.6591 208.442 93.5908 208.209 93.4698C207.947 93.3195 207.73 93.1021 207.579 92.8398C207.479 92.6598 207.419 92.4398 207.379 92.0998C207.359 91.7498 207.359 91.2998 207.359 90.6798V79.3198Z" fill="#FBFBFB" stroke="#232323" stroke-width="0.6"/>
<path d="M213.238 83.8801L221.238 79.0801L229.238 83.8801M221.238 82.2701V88.6701M218.038 83.0701V88.6701M214.838 84.6801V88.6801M227.638 84.6801V88.6801M224.438 83.0701V88.6701M213.238 90.2701H229.238" stroke="#232323" stroke-width="0.8" stroke-linecap="round"/>
<rect x="0.5" y="0.5" width="377" height="115" rx="12.5" stroke="black" stroke-opacity="0.04"/>
<defs>
<clipPath id="clip0_4259_27221">
<rect width="30" height="30" fill="white" transform="translate(25 17)"/>
</clipPath>
</defs>
</svg>
