<svg fill="none" height="135" viewBox="0 0 240 135" width="240" xmlns="http://www.w3.org/2000/svg" xmlns:xlink="http://www.w3.org/1999/xlink"><linearGradient id="a" gradientUnits="userSpaceOnUse" x1="0" x2="240" y1="0" y2="135"><stop offset="0" stop-color="#f5a631"/><stop offset="1" stop-color="#e07c09"/></linearGradient><radialGradient id="b" cx="0" cy="0" gradientTransform="matrix(120.00039899 68.00027518 -120.88872075 213.33288263 0 0)" gradientUnits="userSpaceOnUse" r="1"><stop offset="0" stop-color="#fff"/><stop offset="1" stop-color="#fff" stop-opacity="0"/></radialGradient><linearGradient id="c"><stop offset="0" stop-color="#fff" stop-opacity="0"/><stop offset="1" stop-color="#b4bacc"/></linearGradient><linearGradient id="d" gradientUnits="userSpaceOnUse" x1="124" x2="260" xlink:href="#c" y1="39" y2="175"/><linearGradient id="e" gradientUnits="userSpaceOnUse" x1="94" x2="230" xlink:href="#c" y1="49" y2="185"/><linearGradient id="f" gradientUnits="userSpaceOnUse" x1="199.396" x2="219.959" y1="95.9022" y2="110.542"><stop offset="0" stop-color="#fff"/><stop offset="1" stop-color="#fff" stop-opacity=".6"/></linearGradient><clipPath id="g"><path d="m0 0h240v135h-240z"/></clipPath><clipPath id="h"><path d="m124 39h136v136h-136z"/></clipPath><clipPath id="i"><path d="m94 49h136v136h-136z"/></clipPath><g clip-path="url(#g)"><path d="m0 0h240v135h-240z" fill="url(#a)"/><path d="m0 0h240v135h-240z" fill="url(#b)" fill-opacity=".12"/><g clip-path="url(#h)"><path d="m259.25 107c0 37.141-30.109 67.25-67.25 67.25s-67.25-30.109-67.25-67.25c0-37.1411 30.109-67.25 67.25-67.25s67.25 30.1089 67.25 67.25z" stroke="url(#d)" stroke-opacity=".2" stroke-width="1.5"/></g><g clip-path="url(#i)"><path d="m229.25 117c0 37.141-30.109 67.25-67.25 67.25s-67.25-30.109-67.25-67.25c0-37.1411 30.109-67.25 67.25-67.25s67.25 30.1089 67.25 67.25z" stroke="url(#e)" stroke-opacity=".2" stroke-width="1.5"/></g><path clip-rule="evenodd" d="m211.41 100.249c2.204.808 3.791 2.006 3.427 4.305-.275 1.674-1.152 2.492-2.337 2.78 1.577.883 2.336 2.223 1.524 4.573-1.01 2.948-3.27 3.215-6.264 2.644l-.771 3.111-1.739-.431.77-3.111c-.189-.05-.388-.097-.593-.144-.273-.064-.556-.13-.835-.21l-.771 3.111-1.736-.43.77-3.111-3.459-.942.86-2.2s1.306.359 1.285.337c.485.117.721-.221.818-.458l1.235-4.987.898-3.545c.039-.383-.081-.884-.789-1.075.048-.028-1.273-.315-1.273-.315l.515-2.085 3.565.8835.755-3.0473 1.795.4451-.754 3.0472c.349.076.69.1642 1.035.2534v.0001c.113.0293.227.0586.341.0877l.755-3.0472 1.747.433zm-4.766 4.9c.027.008.056.016.087.026 1.045.314 4.141 1.244 4.663-.828.485-1.969-2.197-2.571-3.444-2.85-.147-.033-.274-.062-.374-.088zm-1.374 6.143c-.055-.017-.105-.031-.151-.045l.932-3.739c.11.028.249.061.41.099 1.47.345 4.752 1.116 4.242 3.097-.495 2.056-4.146.971-5.433.588z" fill="url(#f)" fill-rule="evenodd"/></g></svg>