<svg width="19" height="18" viewBox="0 0 19 18" fill="none" xmlns="http://www.w3.org/2000/svg">
<path d="M1.38672 9C2.09172 5.16 5.45697 2.25 9.50097 2.25C13.545 2.25 16.9095 5.16 17.6152 9C16.9102 12.84 13.545 15.75 9.50097 15.75C5.45697 15.75 2.09247 12.84 1.38672 9ZM9.50097 12.75C10.4955 12.75 11.4494 12.3549 12.1526 11.6517C12.8559 10.9484 13.251 9.99456 13.251 9C13.251 8.00544 12.8559 7.05161 12.1526 6.34835C11.4494 5.64509 10.4955 5.25 9.50097 5.25C8.50641 5.25 7.55258 5.64509 6.84932 6.34835C6.14606 7.05161 5.75097 8.00544 5.75097 9C5.75097 9.99456 6.14606 10.9484 6.84932 11.6517C7.55258 12.3549 8.50641 12.75 9.50097 12.75ZM9.50097 11.25C8.90423 11.25 8.33194 11.0129 7.90998 10.591C7.48802 10.169 7.25097 9.59674 7.25097 9C7.25097 8.40326 7.48802 7.83097 7.90998 7.40901C8.33194 6.98705 8.90423 6.75 9.50097 6.75C10.0977 6.75 10.67 6.98705 11.092 7.40901C11.5139 7.83097 11.751 8.40326 11.751 9C11.751 9.59674 11.5139 10.169 11.092 10.591C10.67 11.0129 10.0977 11.25 9.50097 11.25Z" fill="white"/>
</svg>
